<?xml version="1.0" encoding="utf-8"?>
<!-- Generator: Adobe Illustrator 13.0.0, SVG Export Plug-In  -->
<!DOCTYPE svg PUBLIC "-//W3C//DTD SVG 1.1//EN" "http://www.w3.org/Graphics/SVG/1.1/DTD/svg11.dtd" [
	<!ENTITY ns_flows "http://ns.adobe.com/Flows/1.0/">
]>
<svg version="1.1"
	 xmlns="http://www.w3.org/2000/svg" xmlns:xlink="http://www.w3.org/1999/xlink" xmlns:a="http://ns.adobe.com/AdobeSVGViewerExtensions/3.0/"
	 x="0px" y="0px" width="64px" height="47px" viewBox="0 0 64 47" enable-background="new 0 0 64 47" xml:space="preserve">
<defs>
</defs>
<path fill-rule="evenodd" clip-rule="evenodd" fill="#FFFFFF" d="M39.5,0c0.9,0.9,0.2,2.6,0.4,3.9c0,0.3,0.2,0.5,0.2,0.7
	c0,0.4-0.2,0.7-0.2,1.1c-0.1,0.4,0.2,1-0.3,1.2c-0.2-1.5-0.2-3.4-0.3-5.2c0-0.5-0.2-1-0.2-1.4C39.2,0.3,39.2,0,39.5,0z"/>
<path fill-rule="evenodd" clip-rule="evenodd" fill="#FFFFFF" d="M37.1,7.8c0.1-0.2-0.2-0.5-0.2-0.7C36.7,5,36,2.5,37.1,0.9
	c0.4,0,0.1,0.4,0.1,0.6c0.2,1.7,0,4.4,0.5,6.1c0.1,0.2-0.2,0.1-0.1,0.4c0.2,0.4,0.4,1,0.5,1.5c0.2-0.2,0.2-0.6,0.5-0.7
	c0.4-0.1,0.7,0,1-0.1c-0.1,0.7-0.5,1.3-1.2,1.2c-0.3,0.1-0.3,0.4-0.5,0.5c0.6-0.1,0.7,0.4,0.9,0.7c0.2-0.1,0.6-0.2,0.9-0.1
	c0.3,0.4,0.2,1.3-0.1,1.6c-0.3-0.1-0.5,0-0.7-0.1c-0.1,0.2-0.2,0.4-0.4,0.5c-0.3,0-0.6-0.2-0.9-0.2c-0.4-0.5,0.1-1-0.2-1.5
	c0.1-0.4,0.3-0.6,0.5-0.9c-0.3,0.1-0.4,0.1-0.7,0c-0.2-0.4-0.5-0.7-0.7-1c-0.1-0.5,0.2-0.6,0.2-1c-0.2-0.2-0.5,0.2-0.7,0
	c-0.3-0.2-0.1-0.6-0.2-1c-0.1-0.6-0.4-0.9-0.4-1.7c0-0.7,0-1.8,0.1-2.4c0-0.2,0.1-0.4,0.1-0.5c0-0.9-0.2-1.6,0.4-2.1
	c0.1,0,0.1,0.1,0.2,0.1c0.3,1.4-0.4,2.9-0.3,4.3c0,0.4,0.3,1,0.4,1.5c0,0.3-0.1,0.6,0,0.7C36.3,7.5,36.7,7.9,37.1,7.8z"/>
<path fill-rule="evenodd" clip-rule="evenodd" fill="#FFFFFF" d="M38,0.7c0.1,0,0.1,0.1,0.2,0.1c0.7,1.4,0.3,4.1,0.7,5.9
	c0.1,0.6,0.5,1.2-0.2,1.6c-0.4-0.2-0.3-0.7-0.4-1.4c0-0.2-0.1-0.3-0.2-0.4c0-0.8,0.1-1.6,0-2.4C37.9,2.8,37.3,1.8,38,0.7z"/>
<path fill-rule="evenodd" clip-rule="evenodd" fill="#FFFFFF" d="M41.4,3.6c0.6,0.3,0.1,0.9,0,1.5c-0.1,0.5,0.1,1,0,1.6
	c0,0.2-0.2,0.3-0.2,0.5C41,7.8,41,8.5,40.9,9c-0.2,0.6-0.4,1.1-0.6,1.6c-0.6-0.7,0.2-1.6,0.4-2.5c0.1-0.7-0.1-1.5,0-2.2
	c0.1-0.7,0.5-1.4,0.5-2c0-0.1,0.1-0.1,0.1-0.2C41.3,3.6,41.3,3.6,41.4,3.6z"/>
<path fill-rule="evenodd" clip-rule="evenodd" fill="#FFFFFF" d="M33,3.8c0.4,0.2,0.4,0.8,1,0.8c0.1,1.9,0.9,3.7,1.2,5.7
	c-0.3-0.1-0.4-0.4-0.5-0.7c-0.5-0.8-0.7-2.3-1.3-3.3c0-1-0.2-1.7-0.7-2.2c0-0.1,0-0.1,0-0.2C32.8,3.8,32.9,3.8,33,3.8z"/>
<path fill-rule="evenodd" clip-rule="evenodd" fill="#FFFFFF" d="M32.2,4.7c0.2,1,0.8,1.9,0.6,3.1c0,0.2,0.3,0.2,0.4,0.4
	c0.3,1.5,1.2,2.8,1.4,4.3c-0.5-0.5-0.7-1.2-1-1.9c-0.5-0.8-1-1.5-0.8-2.7C32.4,7,31.6,5.8,32,4.7C32.1,4.7,32.1,4.7,32.2,4.7z"/>
<path fill-rule="evenodd" clip-rule="evenodd" fill="#FFFFFF" d="M12.3,6.9c0.4,0,0.7,0,1,0.1c0.4,0.4,0.2,1,0.4,1.5
	c0.2,0.4,0.8,0.6,0.7,1.2c-1.1,0.3-1.2-1-1.8-1.6C12.8,7.5,12.4,7.4,12.3,6.9z"/>
<path fill-rule="evenodd" clip-rule="evenodd" fill="#FFFFFF" d="M10.7,7.2c0.4,0.1,0.3,0.5,0.5,0.7c0.4,0.3,0.8,0.6,1,1
	c0.7,0,0.9,0.6,1.3,0.9c-0.4,1-1.5,0.1-1.7-0.5c-0.6-0.5-1.2-1.1-1.4-2C10.5,7.3,10.6,7.2,10.7,7.2z"/>
<path fill-rule="evenodd" clip-rule="evenodd" fill="#FFFFFF" d="M30.9,7.2c0,0,0.1,0,0.1,0c0.3,0.2,0.3,0.6,0.4,0.9
	c0.3,0.8,0.6,1.9,1,2.8c0.3,0.6,0.7,1.1,1,1.6c0.3,0.6,0.7,1.1,0.9,1.6c0.2,0.2,0.5,0.4,0.7,0.7c-0.7,0.3-1.3-0.5-1.6-0.9
	c-0.3-0.4-0.5-1.1-0.7-1.7c-0.2-0.5-0.5-1.2-0.7-1.7c-0.2-0.4-0.6-0.7-0.7-1c-0.3-0.6-0.3-1.3-0.4-2C30.9,7.4,30.9,7.3,30.9,7.2z"/>
<path fill-rule="evenodd" clip-rule="evenodd" fill="#FFFFFF" d="M16.4,9.9c0,0.2-0.2,0.2-0.4,0.2c0.4,0.5-0.1,1.1-0.8,1
	c-0.3,1.2-2.1,0.7-2.1-0.4c0.2-0.4,0.6-0.5,1.3-0.4c0.1-0.4,0.5-0.7,1-0.7c-0.1-0.8-0.6-1.2-0.9-1.9c1-0.4,1.1,0.7,1.4,1.5
	C16,9.5,16.3,9.6,16.4,9.9z"/>
<path fill-rule="evenodd" clip-rule="evenodd" fill="#FFFFFF" d="M20.7,15.9c-0.1,0-0.3,0-0.4,0c-0.1-0.2-0.2-0.6,0-0.7
	c-0.5-0.5-1-1.3-0.4-2.3c-0.4-0.8-0.4-1.9-1.1-2.3c-0.1-0.6-0.5-1-0.8-1.4c0.1-0.4,0.3-1,0.8-0.7c0.4,0.7,0.5,1.7,1.1,2.1
	c0.2,0.5,0.2,1,0.3,1.5c0,0.2,0.2,0.4,0.2,0.6c0.1,0.4,0,0.8,0.1,1.1C20.5,14.3,20.9,15.2,20.7,15.9z"/>
<path fill-rule="evenodd" clip-rule="evenodd" fill="#FFFFFF" d="M16.9,13.2c-0.9,0.1-2.2,0.9-2.5-0.2c0.2-0.5,1-1,1.6-0.5
	c0.2-0.2,0.1-0.8,0.4-1c0.7,0,1,0.3,1,1c0.1,0.2,0.4,0.3,0.7,0.3c-0.1-0.6-0.5-1-0.6-1.6c0-0.1,0.1-0.3,0.1-0.4
	c-0.2-0.9-1.1-1.4-1.3-2.3C18,8.4,18,10.6,18.4,12c0,0.2,0,0.4-0.1,0.5c0,0.2,0.2,0.3,0.2,0.5c-0.1,0.3-0.2,0.4-0.1,0.8
	c-0.3,0.2-0.6,0.4-1,0.5C17.2,14,16.9,13.7,16.9,13.2z"/>
<path fill-rule="evenodd" clip-rule="evenodd" fill="#FFFFFF" d="M42.5,8.5c-0.2,0.4,0,0.9-0.1,1.3c-0.1,0.3-0.3,0.5-0.4,0.8
	c-0.2,0.7-0.2,1.6-0.4,2.3c-0.2,0.6-0.4,1.1-0.7,1.5c-0.8-0.3,0-1.1,0.2-1.6c0.2-0.8,0.1-1.7,0.4-2.2c-0.1-1,0.4-1.4,0.5-2.1
	C42.3,8.5,42.3,8.4,42.5,8.5z"/>
<path fill-rule="evenodd" clip-rule="evenodd" fill="#FFFFFF" d="M12.8,11.6c-0.9,0-1.2-0.6-1.9-0.7c-0.4-0.8-2.3-0.8-1.8-2
	c0.1,0,0.1,0,0.2,0c0.3,0.4,0.9,0.5,1.3,0.7c0.4,0.2,0.6,0.7,1,1c0.3,0.2,0.6,0.4,0.9,0.7C12.7,11.3,12.9,11.3,12.8,11.6z"/>
<path fill-rule="evenodd" clip-rule="evenodd" fill="#FFFFFF" d="M43.9,9.4c0.2,0.4-0.1,0.8-0.2,1.2c-0.1,0.4,0,0.8-0.1,1.3
	c-0.1,0.5-0.5,1.1-0.7,1.6c-0.4,1.2-0.6,1.7-1.3,2.5c-0.2,0.2-0.4,0.7-0.7,0.6c-0.4-0.3,0.1-0.7,0.3-1c0.2-0.3,0.3-0.7,0.6-0.9
	c0-0.4,0.3-0.6,0.4-1c0.1-0.4,0.2-1,0.3-1.6c0.1-0.5,0.3-1,0.4-1.4c0.1-0.4,0-0.8,0.2-1.1c0-0.1,0.3-0.2,0.3-0.4
	C43.8,9.3,43.7,9.4,43.9,9.4z"/>
<path fill-rule="evenodd" clip-rule="evenodd" fill="#FFFFFF" d="M20.6,9.7c0,0,0.1,0,0.1,0c0.7,0.1,0.8,1.1,1,1.9
	c0.3,0.9,0.9,1.6,0.5,2.6c0.4,1.3,0.6,2.9,0.7,4.5c-0.2,0.4-0.7,0.8-1.1,0.3c-0.1-0.6,0.3-0.7,0.4-1c-0.3-2.2-0.2-4.3-0.9-6.1
	c-0.3-0.6-0.7-1.1-0.8-1.9C20.6,9.9,20.6,9.8,20.6,9.7z"/>
<path fill-rule="evenodd" clip-rule="evenodd" fill="#FFFFFF" d="M37.1,10.5c0.1,0.6,0.2,1.8-0.2,2c0.3,0.3,0.8,0.5,0.7,1.3
	c-0.5,0.7-1.4,0.1-1.7-0.5c0.4-0.1,0.2-0.8,0.7-0.7c-0.2-0.1,0-0.3-0.2-0.5c-0.1-0.3-0.4-0.4-0.4-0.6C36,10.9,36.4,10.6,37.1,10.5z"
	/>
<path fill-rule="evenodd" clip-rule="evenodd" fill="#FFFFFF" d="M14.5,14.3c-0.5,0.2-1-0.1-1.3-0.4c-0.7-0.5-1.4-1-2.2-1.4
	c-0.7-0.4-1.4-0.5-1.9-1.1c0-0.1,0.1-0.1,0.1-0.2c0.1,0,0.1-0.1,0.1-0.1c0.7-0.1,1,0.4,1.4,0.7c0.6,0.4,1.4,0.6,1.9,1
	c0.3,0.2,0.5,0.6,0.7,0.7C13.9,13.8,14.5,13.8,14.5,14.3z"/>
<path fill-rule="evenodd" clip-rule="evenodd" fill="#FFFFFF" d="M23,12.3c0,0,0.1,0,0.1,0c0.4,0.2,0.3,0.7,0.4,1.1
	c0.1,0.3,0.3,0.7,0.4,1.1c0,0.2,0,0.5,0,0.7c0.1,0.4,0.3,0.8,0.4,1.3c0.1,0.7,0,1.7,0.1,2.5c0,0.7,0.1,1.3-0.3,1.8
	c-0.3-0.5-0.5-1.4-0.1-1.9c-0.3-1.1-0.2-2.1-0.4-3.2c0-0.1,0-0.3,0-0.4c-0.1-0.2-0.3-0.5-0.3-0.7c0-0.2,0-0.5,0-0.8
	C23.1,13.1,22.9,12.8,23,12.3z"/>
<path fill-rule="evenodd" clip-rule="evenodd" fill="#FFFFFF" d="M40,12.7c0.1,0.4,0,0.9-0.1,1.1c-0.1,0.1-0.2,0-0.3,0.1
	c-0.1,0.1,0,0.2-0.1,0.2C37.7,14.5,38.8,11.9,40,12.7z"/>
<path fill-rule="evenodd" clip-rule="evenodd" fill="#FFFFFF" d="M44.7,13.1c0.2,1-0.5,2-1,2.7c-0.2,0.2-0.4,0.6-0.7,0.7
	c0.4-1.3,1.1-2.2,1.3-3.4C44.5,13.1,44.6,13.1,44.7,13.1z"/>
<path fill-rule="evenodd" clip-rule="evenodd" fill="#FFFFFF" d="M30.6,21.1c0-0.2-0.2-0.3-0.1-0.7c-0.7,0-0.8,0.5-1.5,0.4
	c-0.2-0.2-0.3-0.6-0.1-1c-0.8-0.4-2-1-1.4-2.2c-1.1-0.4-1.1-2-1.8-2.8c0.3-0.1,0.4-0.4,0.6-0.5c0.7,0.4,0.7,1.4,1,2.2
	c0.1,0.3,0.4,0.5,0.4,0.9c0.1,0.1,0.2,0.1,0.4,0.1c0,0.4,0.4,0.5,0.5,0.9c-0.1,0.4,0.1,0.6,0.2,0.8c0.4,0,0.4-0.3,0.8-0.2
	c-0.1-0.7-0.8-0.8-0.9-1.5c0.1-0.4,0.7-0.2,0.9-0.4c-0.3-0.6-0.4-1.3-0.7-2c-0.1-0.2-0.2-0.5-0.4-0.8c-0.2-0.4-0.3-0.6-0.1-1
	c0.6-0.1,0.7,0.4,0.7,0.9c0.6,0.7,0.5,2.2,0.9,3.1c0,0.2-0.1,0.3-0.2,0.4c0.5,0.3,1.2,1.6,0.2,1.9c0.1,0.3,0.4,0.3,0.4,0.7
	c0.9-0.5,1.3,0.6,1.3,1.3c-0.2,0.1-0.4,0.2-0.7,0.1c0,0.3,0.1,0.5,0.1,0.8c-0.4,0.3-1.3,0.3-1.5-0.2c-0.6,0.1-1.2-0.4-1.4-0.9
	c-0.2,0.1-0.1,0.4-0.4,0.3c-0.4-0.1-0.5-0.6-0.7-1c-0.2-0.3-0.7-0.5-1-0.8c0-0.3,0.2-0.2,0.3-0.4c0.7,0.4,1.1,1.1,1.6,1.6
	c0.3-0.3,0.4-0.4,0.7-0.2c0.3,0.1,0.5,0.4,0.5,0.4C29.5,21.4,30.1,20.5,30.6,21.1z"/>
<path fill-rule="evenodd" clip-rule="evenodd" fill="#FFFFFF" d="M32,13.2c0.5,0.4,0.5,1,0.9,1.4c0.4,0.4,0.8,1,1.2,1.4
	c0.3,0.4,0.9,0.6,1,1c-1.1-0.3-1.6-1.2-2.5-1.8C32.6,14.5,31.4,14.2,32,13.2z"/>
<path fill-rule="evenodd" clip-rule="evenodd" fill="#FFFFFF" d="M26.9,13.4c0,0,0.1,0,0.1,0c0.8,0.4,0.9,1.7,1.3,2.6
	c0.1,0.3,0.4,0.5,0.3,1c-0.8-0.1-0.9-0.9-1-1.6C27.3,14.9,26.8,14.1,26.9,13.4z"/>
<path fill-rule="evenodd" clip-rule="evenodd" fill="#FFFFFF" d="M15.1,16c0.1,0.2,0.3,0.6,0.2,0.7c-0.5,0.2-0.9-0.2-1-0.5
	c-0.5-0.2-1-0.3-1.6-0.4c-0.5-0.9-1.8-1-2.1-2.1c0.6-0.2,1.1,0.3,1.3,0.8c0.3,0.1,0.5,0.2,0.7,0.4C13.7,15,14,15.9,15.1,16z"/>
<path fill-rule="evenodd" clip-rule="evenodd" fill="#FFFFFF" d="M17.4,14.9c-0.5,0.2-1.7,0.3-2.2-0.1
	C14.8,13.1,17.8,13.7,17.4,14.9z"/>
<path fill-rule="evenodd" clip-rule="evenodd" fill="#FFFFFF" d="M39,15.2c0.1-0.4,0.4-0.6,0.8-0.7c0.8,0.4,0.1,1.6-0.6,1.6
	c-0.3,0-0.3-0.3-0.4-0.4c-0.4,0-1,0.2-1.3-0.1c-0.1,0.2,0.1,0.3,0.1,0.4c-0.7,0.6-1.5-0.2-1.9-0.7c0-0.3,0.2-0.5,0.2-0.7
	c0.7-0.3,1.3,0.3,1.4,0.8c0.2-0.7,0.1-1.5,0.7-1.5C38.7,13.8,38.7,14.7,39,15.2z"/>
<path fill-rule="evenodd" clip-rule="evenodd" fill="#FFFFFF" d="M59.4,13.8c0,0.5-0.7,0.9-1.1,1.1c-0.5,0.8-1.2,1.4-1.6,2.5
	c-0.1,0.4-0.2,1-0.8,0.9c0.1-1.7,1.6-2.1,2-3.4C58.6,14.7,58.8,14,59.4,13.8z"/>
<path fill-rule="evenodd" clip-rule="evenodd" fill="#FFFFFF" d="M55.3,14c-0.4,0.8-0.9,1.4-1.5,2.1c-0.4,0.9-1.1,1.8-1.6,2.8
	c-0.1,0.3-0.2,0.7-0.6,0.7c0-0.6,0.1-1.2,0.7-1.4c0.8-1.5,1.4-3.2,2.8-4.2C55.1,14,55.2,14,55.3,14z"/>
<path fill-rule="evenodd" clip-rule="evenodd" fill="#FFFFFF" d="M19.1,14.3c0,0.6-0.1,1-0.4,1.3c0.1,0.2,0.3-0.2,0.7-0.1
	c0.2,0.1,0.6,0.3,0.7,0.6c0.1,0.4-0.2,0.7-0.3,1c0.1,0.1,0.4-0.4,0.9-0.2c0.1,0.2,0.3,0.3,0.4,0.5c0.1,0.4-0.7,1.5-1,1.6
	c-0.4,0.1-0.9-0.1-0.9-0.5c0-0.5,0.6-0.3,0.5-0.9c-0.2-0.2-0.6,0.1-0.9,0c-0.2,0.2-0.2,0.5-0.4,0.7c-0.1,0-0.4,0.1-0.7,0.1
	c-0.4-0.1-1.4-0.7-1.4-1.2c0.4-0.6,1.5-0.2,2,0.1c0.1-0.4,0.3-0.7,0.2-1.2c-0.3-0.1-0.7-0.2-0.8-0.5C17.7,14.8,18.2,13.6,19.1,14.3z
	"/>
<path fill-rule="evenodd" clip-rule="evenodd" fill="#FFFFFF" d="M17.9,16.1c0.1,0.5-0.3,0.5-0.4,0.7c-0.4,0.1-0.4-0.2-0.6-0.3
	c-0.5,0-1,0.2-1.1-0.2c0-0.5,0.4-0.6,0.5-1C17.1,15,17.4,15.8,17.9,16.1z"/>
<path fill-rule="evenodd" clip-rule="evenodd" fill="#FFFFFF" d="M55.9,15.2c0.3,0.1-0.1,0.3-0.2,0.4c-0.3,0.4-0.8,0.9-1,1.4
	c-0.5,1-0.7,2.2-1.6,2.8c-0.3-0.4,0.2-0.8,0.4-1.2c0.2-0.6,0.3-1.2,0.7-1.6c0.2-0.2,0.4-0.2,0.6-0.4C55.2,16.2,55.4,15.5,55.9,15.2z
	"/>
<path fill-rule="evenodd" clip-rule="evenodd" fill="#FFFFFF" d="M38.9,17.1c0.4-0.3,0.6-1.1,1.4-0.6c0.2,0.7-0.1,1.6-0.4,2
	c-0.4,0-0.7-0.1-1-0.2c0-0.3-0.1-0.4-0.1-0.7c-0.1,0.2-0.3,0.4-0.5,0.5c-0.3,0-0.5-0.2-0.7-0.2c-0.2,0.1,0.1,0.4,0,0.7
	c-0.6,0.6-0.7-0.5-1.3-0.2c-0.1-0.6-1-0.8-0.7-1.6c0.2-0.3,0.9-0.3,1.2-0.1c0.2,0.3,0.4,0.6,0.5,1c0-0.8,0-1.7,0.8-1.6
	C38.6,16,38.8,16.6,38.9,17.1z"/>
<path fill-rule="evenodd" clip-rule="evenodd" fill="#FFFFFF" d="M25.4,16c0.7,1,0.5,2.6,0.1,3.8c-1.1-0.6,0.1-2.7-0.7-3.6
	c0-0.1,0-0.1,0.1-0.1C24.9,16,25.2,16,25.4,16z"/>
<path fill-rule="evenodd" clip-rule="evenodd" fill="#FFFFFF" d="M34.7,19c-0.7,0.1-1.3-1-1.7-1.6c-0.3-0.5-0.7-0.9-0.3-1.3
	c0.4,0.1,0.7,0.3,0.7,0.9C33.8,17.7,34.4,18.3,34.7,19z"/>
<path fill-rule="evenodd" clip-rule="evenodd" fill="#FFFFFF" d="M62.5,16.2c0,0.3-0.5,0.8-1,0.9C61.6,16.6,61.9,16.3,62.5,16.2z"/>
<path fill-rule="evenodd" clip-rule="evenodd" fill="#FFFFFF" d="M31.4,16.5c0.4,0.3,0.1,0.9,0.2,1.4c0.1,0.4,0.4,0.6,0.4,0.9
	c-0.2,0.4-0.1,1.3-0.6,1.4c-0.3-0.1,0-0.5-0.1-1C31.3,18.3,30.7,17.4,31.4,16.5z"/>
<path fill-rule="evenodd" clip-rule="evenodd" fill="#FFFFFF" d="M42.9,16.7c0.3,0.3-0.3,0.8-0.5,1C42.3,17.1,42.7,17,42.9,16.7z"/>
<path fill-rule="evenodd" clip-rule="evenodd" fill="#FFFFFF" d="M58.6,16.7c0.1,0,0.1,0.1,0.2,0.1c-0.4,0.7-0.4,1.8-1.1,2.1
	C57.5,18.1,58.1,17.3,58.6,16.7z"/>
<path fill-rule="evenodd" clip-rule="evenodd" fill="#FFFFFF" d="M44.5,17c-0.3,0.8-1.2,1.4-1.7,2c-0.1,0.2-0.2,0.4-0.3,0.6
	c-0.3,0.5-0.8,1-1.1,1.6c-0.9-0.7,0.9-1.5,0.9-2.3c0.3-0.2,0.5-0.4,0.6-0.8c0.4-0.4,0.8-0.7,1.1-1.1c0-0.1,0.1-0.1,0.1-0.1
	C44.3,16.9,44.4,17,44.5,17z"/>
<path fill-rule="evenodd" clip-rule="evenodd" fill="#FFFFFF" d="M51.4,17c-0.1,0.9-0.5,1.5-1,1.9c-0.8,1.4-1.7,2.7-2.3,4.3
	c-0.2-0.1-0.1-0.8,0-1.1c0.1-0.4,0.4-0.7,0.6-0.9c0.3-1.2,1.3-1.8,1.6-3.1c0.3-0.4,0.7-0.7,1-1.1C51.3,17,51.4,17,51.4,17z"/>
<path fill-rule="evenodd" clip-rule="evenodd" fill="#FFFFFF" d="M12.9,17.1c0,0,0.1,0,0.1,0c0.4,0.1,0.7,0.4,1.1,0.6
	c0.4,0.2,0.9,0.2,1.3,0.3c0.1,0,0.2,0.2,0.4,0.2c0.4,0.1,0.9,0,0.7,0.7c-0.3,0.4-0.7,0-1-0.1c-0.9-0.4-1.9-0.8-2.7-1.3
	C12.9,17.3,12.9,17.2,12.9,17.1z"/>
<path fill-rule="evenodd" clip-rule="evenodd" fill="#FFFFFF" d="M60.9,17.6c0-0.1,0.1-0.1,0.1-0.1C61.1,17.6,61,17.5,60.9,17.6z"/>
<path fill-rule="evenodd" clip-rule="evenodd" fill="#FFFFFF" d="M60.7,17.6c0.2,0,0.1,0.1,0.1,0.1c-0.8,0.5-1.1,1.6-1.9,2
	C58.9,18.5,60,18.2,60.7,17.6z"/>
<path fill-rule="evenodd" clip-rule="evenodd" fill="#FFFFFF" d="M39.1,19.8c0.4-0.2,0.4-0.9,1-0.9c1,0,0.7,2.1-0.1,2.5
	c-0.5-0.1-0.9-0.4-0.9-1c-0.4,0.3-0.9,0.2-1.3-0.1c-0.2,0.1-0.1,0.5-0.3,0.6c-0.9,0-1.7-0.2-1.6-1.2c0-0.2-0.4-0.1-0.4-0.4
	c-0.1-0.4,0.1-0.5,0.3-0.6c1.1-0.1,1.4,0.5,1.7,1.2c0-0.8,0.2-1.9,1.3-1.4C39.1,18.7,39.1,19.3,39.1,19.8z"/>
<path fill-rule="evenodd" clip-rule="evenodd" fill="#FFFFFF" d="M61.7,18.5c-0.5,1.3-1.4,2.2-2.4,3.1c-0.4,1.2-1.5,1.9-2.4,2.6
	c-0.1-0.4,0.4-0.5,0.6-0.7c0.3-0.4,0.6-0.8,0.8-1.3c-0.4,0.2-1.2,0.2-1.5-0.1c0.2-0.4,0.6-0.5,1.1-0.6c0.2,0.2,0.4,0.3,0.4,0.7
	c1.1-1.1,1.9-2.5,3-3.7C61.5,18.5,61.6,18.5,61.7,18.5z"/>
<path fill-rule="evenodd" clip-rule="evenodd" fill="#FFFFFF" d="M19.7,19.4c-0.1,1.5-1.5,0.5-2.2,0.2C17.3,18,19.2,18.7,19.7,19.4z
	"/>
<path fill-rule="evenodd" clip-rule="evenodd" fill="#FFFFFF" d="M41.3,18.9c0.2,0.2-0.2,0.6-0.3,0.4C41,19,41.2,19.1,41.3,18.9z"/>
<path fill-rule="evenodd" clip-rule="evenodd" fill="#FFFFFF" d="M20.3,20.6c-0.4-0.5,0.1-1.1,0.2-1.5c1.4-0.5,1.7,1,0.6,1.4
	C20.8,20.7,20.6,20.8,20.3,20.6z"/>
<path fill-rule="evenodd" clip-rule="evenodd" fill="#FFFFFF" d="M63.9,19.1c0.3,0.1-0.1,0.3-0.1,0.3c-1.3,1.5-2.9,3.1-4.2,4.6
	c-0.2,0.2-0.4,0.5-0.6,0.7c-0.4,0.5-1,0.7-1.5,1c-0.6,0.4-1.1,1.5-2.1,0.9c-0.2-0.6,0.6-0.9,1-1.2c0.2,0,0.4,0.1,0.5,0.2
	c0.5-0.3,0.8-0.8,1.3-1.1c0.8-0.7,1.6-1.4,2.4-2.2c0.4-0.4,0.7-0.9,1-1.3c0.3-0.3,0.8-0.3,1.1-0.6C63.1,19.9,63.3,19.3,63.9,19.1
	C63.9,19.1,63.9,19.1,63.9,19.1z"/>
<g>
	<g>
		<path fill-rule="evenodd" clip-rule="evenodd" d="M48,14c-0.9-0.3-1.1,0.6-1.4,1.3c-0.1,0.3-0.3,0.5-0.4,0.7
			c-0.2,0.6-0.3,1.4-0.5,1.7c-0.3,0.5-0.9,0.9-1.3,1.2c-0.5,0.4-1.1,0.7-1.4,1.2c-0.6,0.8-1,2.3-1.5,3.1c-0.4,0.7-1,1.9-1.1,2.7
			c-0.1,0.4,0,0.8,0,1.3c0,0.5-0.2,0.9-0.3,1.5c-0.1,0.8-0.1,1.3-0.2,2c-0.1,0.5-0.1,0.9-0.2,1.3c0,0.2-0.2,0.4-0.2,0.6
			c-0.1,0.4,0,0.9-0.2,1.3c-0.2,0.1-0.5,0.2-0.6,0.4c0,0.3,0.1,0.6,0.1,0.8c-0.4,0.6-0.4,1.7-0.7,2.3c0.1,0.4,0,1-0.3,1.2
			c0.1-0.6,0.1-1.2,0.2-1.9c0.1-0.6,0.5-1.3,0.5-1.8c0.1-0.5-0.2-1.1-0.1-1.8c0-1.6-0.1-3.6,0.1-5.1c0.1-0.8,0.2-1.2-0.1-1.7
			c0.2-0.1,0.1-0.4,0.2-0.5c0.3-0.5,1.2-0.5,1.3-1.3c-0.1-0.3-0.6-0.2-0.8-0.4c0-0.2-0.1-0.6,0.1-0.7c0,0.4,0,0.6,0.4,0.6
			c0.4-0.2,0.4-0.8,0.5-1.3c0.2-0.3,0.8-0.7,0.5-1.3c-0.7-0.2-0.9,0.5-1.1,0.4c-0.1-0.5-0.4-0.9-0.5-1.3c-0.4-0.1-1,0-1.3,0.2
			c-0.1,0.2,0.1,0.7-0.1,1c-0.3-0.5-0.5-1-1.3-1c-0.4,0.2-0.1,0.8,0,1.1c-0.1,0.5,0.1,0.8,0.2,1c0.3,0.1,0.7,0.1,1.1,0.1
			c-0.2,0.4,0.1,0.9-0.1,1.2c-0.1-0.8-1.1-1-1.3-0.2c-0.1,0.7,0.6,1.4,1.3,1.4c0.1-0.2-0.3-0.3-0.1-0.4c0.1,0.1,0.3,0.2,0.4,0.4
			c-0.3,0.3-0.1,0.8,0.1,1c-0.3,0-0.2,0.4-0.4,0.6c0.6,1,0.2,2.2,0.1,3.3c0,0.5,0.2,1,0.2,1.5c0,0.3-0.1,0.7-0.1,1
			c0,0.6,0.2,1.2,0.1,1.8c-0.1,0.5-0.3,1-0.4,1.6c-0.2,0.8-0.1,1.6-0.2,2.5c-0.1,0.5-0.3,1-0.4,1.6c-0.1,0.5,0,1.1,0,1.7
			c0,0.5,0,1.1,0,1.6c0,0.7,0.4,1.4,0.1,2.2c-0.1-0.6-0.3-1.1-0.4-1.7c-0.2-1.3,0.1-2.9-0.4-3.9c-0.2-0.4-0.7-0.7-1-1.2
			c-0.3-0.4-0.6-0.8-0.9-1.3c-0.2-0.3-0.4-0.9-0.7-1.2c-0.1-0.2-0.4-0.3-0.5-0.4c-0.4-0.4-0.5-0.8-1.1-0.8c0.3,0.8,0.9,1.4,1.4,2
			c0.7,0.9,1.3,1.8,1.8,2.8c0.4,0.9,0.4,1.9,0.4,2.9c0.1,1,0.4,1.9,0.4,2.8c0,0.4-0.2,0.9,0.2,1.2c0.7-0.1,0.8-0.2,1.5-0.1
			c0.6-0.5,0.3-1.5,0.4-2.4c0.1-0.6,0.1-1.2,0.2-1.9c0-0.8,0.8-1.4,0.7-2.2c0.7-0.8,1.5-1.6,2.1-2.6c0.8-0.7,1.5-1.5,2.1-2.4
			c0.5-0.7,1-1.4,0.7-2.2c-0.8,0.1-0.7,1-1.3,1.3c-1,1.6-1.7,3.6-3.5,4.5c0.3-0.5,0.4-1.2,0.6-1.8c0.1-0.2,0.2-0.3,0.3-0.5
			c0.1-0.4,0.1-0.7,0.2-1.1c0.3-1,0.4-2.2,0.7-3.3c0.4-1.4,0.9-2.6,1.7-3.7c0.8-0.6,1.3-1.3,1.9-2.2c0.4-0.6,0.7-1.2,1-1.8
			c0.8-1.6,1.6-4,1.2-6.1c0.5-0.5,0.7-1.1,1-1.9C47.8,15.8,48.3,15.2,48,14z M39.3,22.6c0,0.3-0.2,0.4-0.1,0.7
			c-0.2-0.1-0.4-0.3-0.4-0.6C39,22.9,39.1,22.6,39.3,22.6z M37.9,22.9c-0.1,0-0.2-0.1-0.2-0.3c0.1,0,0.2,0.1,0.3,0.1
			C38,22.8,37.9,22.8,37.9,22.9z M37.6,39.8c-0.2-0.2,0.1-0.4,0.1-0.6C38,39.3,37.7,39.7,37.6,39.8z M44.8,21.1
			C44.9,20.8,44.9,21.4,44.8,21.1L44.8,21.1z M45.6,20c0.3-0.3,0.2-0.9,0.7-0.9C46.3,19.6,46.1,19.9,45.6,20z"/>
	</g>
</g>
<path fill-rule="evenodd" clip-rule="evenodd" fill="#FFFFFF" d="M57.8,19.5c-0.3,0.5-0.7,0.9-1.5,0.8
	C55.5,19.5,57.4,18.7,57.8,19.5z"/>
<path fill-rule="evenodd" clip-rule="evenodd" fill="#FFFFFF" d="M34.6,20.5c-0.3,0.3-0.8-0.6-1.1-0.7
	C33.8,19.2,34.5,20.1,34.6,20.5z"/>
<path fill-rule="evenodd" clip-rule="evenodd" fill="#FFFFFF" d="M32.7,21.1c0.4,0.6,0.5,1.7-0.1,2.2c-0.1-0.7-0.6-1.6-0.1-2.2
	c-0.1-0.5-0.7-1.6,0.4-1.6C33.3,19.9,33,20.8,32.7,21.1z"/>
<path fill-rule="evenodd" clip-rule="evenodd" fill="#FFFFFF" d="M55.7,20c-0.1,0.3-0.3,0.2-0.6,0.5c-0.5,0.5-0.6,1.4-1,1.3
	c-0.2,0-0.5-0.2-0.4-0.7c-0.7,0.1-0.4,1.9-1.3,2.2c-0.3,0.1-0.7,0-1-0.3c-0.1-1.5,0.7-2.6,2.2-2c0.2-0.1,0.1-0.4,0.2-0.6
	C54.4,20.2,55.2,19.1,55.7,20z"/>
<path fill-rule="evenodd" clip-rule="evenodd" fill="#FFFFFF" d="M18,21.3c-1-0.2-1.8-0.7-2.6-1.2c0.5-0.4,1,0.5,1.9,0.4
	C17.4,20.8,17.9,20.8,18,21.3z"/>
<path fill-rule="evenodd" clip-rule="evenodd" fill="#FFFFFF" d="M58.5,20.2c0,0.6-0.4,0.7-0.7,1c-0.2,0.1-0.2,0.5-0.5,0.3
	C56.9,20.7,57.8,19.8,58.5,20.2z"/>
<path fill-rule="evenodd" clip-rule="evenodd" fill="#FFFFFF" d="M51.2,20.3c0.1,0.3-0.1,0.9-0.4,1C50.4,21,51.1,20.6,51.2,20.3z"/>
<path fill-rule="evenodd" clip-rule="evenodd" fill="#FFFFFF" d="M25.6,20.4c0,1-0.2,2.4-0.1,3.4c-0.4-0.2-0.2-0.8-0.3-1.3
	c0-0.4-0.2-0.8-0.1-1.1c0-0.2-0.2-0.2-0.1-0.5C25.1,20.7,25.1,20.4,25.6,20.4z"/>
<path fill-rule="evenodd" clip-rule="evenodd" fill="#FFFFFF" d="M20.4,21c-0.2,1-1.5,1-1.9,0.2C18.4,20.2,20.1,20.5,20.4,21z"/>
<path fill-rule="evenodd" clip-rule="evenodd" fill="#FFFFFF" d="M55,22.2c-0.1-1.1,1.7-2.2,2-1c0.1,0.4-0.3,1.2-0.8,1.3
	C55.8,22.6,55.3,22.3,55,22.2z"/>
<path fill-rule="evenodd" clip-rule="evenodd" fill="#FFFFFF" d="M22.2,21.2c-0.2,0.4-0.5,0.7-0.9,0.9c0,0.6-1.5,1.6-1.8,0.4
	c0.2-0.4,0.6-0.9,1.3-0.6c0.1-0.2-0.1-0.3-0.1-0.6C20.8,20.6,22,20.4,22.2,21.2z"/>
<path fill-rule="evenodd" clip-rule="evenodd" fill="#FFFFFF" d="M23.6,21.3c0.1,0,0.1,0.1,0.2,0.1c0,0.4-0.1,0.5-0.1,0.8
	C23.3,22,23.5,21.6,23.6,21.3z"/>
<path fill-rule="evenodd" clip-rule="evenodd" fill="#FFFFFF" d="M26.1,21.3c0.1,0,0.1,0.1,0.2,0.1c0,1.1,0.8,1.9,0.9,3.1
	c0.1,0.9-0.2,1.8,0,2.9c-0.9-0.4-0.7-2-0.7-3c0-0.4-0.2-0.7-0.3-1.1c0-0.2,0-0.4,0-0.5C26.1,22.4,25.7,21.8,26.1,21.3z"/>
<path fill-rule="evenodd" clip-rule="evenodd" fill="#FFFFFF" d="M22.1,23.4c0,0.3,0.3,0.5,0.6,0.5c0.1-0.3,0.2-0.7,0.6-0.7
	c0.4,0.2,0.7,0.6,0.6,1c0.4-0.2,0.9,0,1,0.2c0.2,0.4-0.2,0.6-0.2,0.7c0,0.2,0.4,0.3,0.1,0.7c0.6,0.5,1,1.2,1.5,1.8
	c0.5,0.7,1.4,1.2,1.6,2.2c0.1,0.2,0.3,0.3,0.4,0.5c0.2,0,0.3,0.1,0.5,0.1c0.6,0.6,1.1,1.2,1.8,1.8c0.2,0.6,0.5,1.2,1,1.6
	c-0.1,0.5,0.6,0.5,0.3,0.9c-0.4,0.1-0.6-0.3-0.9-0.6c-0.3-0.3-0.6-0.5-0.9-0.7c-1-1-1.6-2.5-2.8-3.1c-0.8-1.5-2.4-2.3-2.9-4.2
	c-0.3-0.1-0.4,0.4-0.7,0.1c-0.4,0.2,0-0.1-0.1-0.2c-0.1-0.1-0.5-0.1-0.3-0.4c-0.6,0-1.2,0-1.4-0.4c0-0.3,0.2-0.3,0.2-0.5
	c-0.2-0.4-1.3,0-1.4-0.6c0-0.6,0.4-0.8,1-0.8c-0.8-1.3,1.6-2.2,1.3-0.4C22.9,23.1,22.5,23.3,22.1,23.4z M22.6,24.4
	c0.4,0.3,0.8,0.7,1.5,0.7c0.1,0.1,0,0.5,0.1,0.6c0.1-0.2,0.3-0.3,0.3-0.6c-0.4-0.1-0.6-0.3-0.7-0.7c-0.6,0.1-0.9-0.1-1.1-0.4
	C22.7,24.2,22.5,24.2,22.6,24.4z"/>
<path fill-rule="evenodd" clip-rule="evenodd" fill="#FFFFFF" d="M16.6,21.8c0.5,0.1,0.9,0.2,1.2,0.5c0.5,0.1,1.2,0,1.2,0.6
	c-0.9,0.1-1.4-0.7-2.3-0.8C16.6,22.1,16.5,21.9,16.6,21.8z"/>
<path fill-rule="evenodd" clip-rule="evenodd" fill="#FFFFFF" d="M32.2,23.5c-0.1,0.1-0.4,0.1-0.7,0.1c-0.8-0.6,0-2.3,0.7-1.3
	C32.2,22.7,32.4,23.2,32.2,23.5z"/>
<path fill-rule="evenodd" clip-rule="evenodd" fill="#FFFFFF" d="M33.6,22c0.1,0,0.1,0,0.1,0.1c0.2,0.7,0.7,1.5,0.6,2.7
	c0,0.4,0,1-0.4,1.1c-0.4-0.2-0.1-0.6-0.1-0.9c0-0.3-0.2-0.6-0.3-1C33.5,23.3,33.7,22.7,33.6,22z"/>
<path fill-rule="evenodd" clip-rule="evenodd" fill="#FFFFFF" d="M55,22.9c-0.1,0.6-0.4,1.2-0.8,1.3c-0.3,0-0.8-0.5-0.8-0.8
	c0-0.5,0.6-0.7,1-0.9C54.7,22.5,54.7,22.8,55,22.9z"/>
<path fill-rule="evenodd" clip-rule="evenodd" fill="#FFFFFF" d="M30.4,23.4c0.9-0.2,1.9,0.5,1.6,1.5c-0.4,0.1-0.7,0-1.1,0.1
	c-0.3-0.2-0.5-0.7-0.4-1.3c-0.2-0.2-0.3,0.4-0.4,0.4c-0.6,0-0.6-0.6-1-0.7c-0.6,0.5-1.5-0.1-1.6-0.7c0.5-0.2,0.8,0.3,1.3,0.4
	C28.8,22.2,30.2,22.7,30.4,23.4z"/>
<path fill-rule="evenodd" clip-rule="evenodd" fill="#FFFFFF" d="M56.9,23.1c-0.2,0.6-1.3,1-1.9,0.7c0-0.3,0.2-0.4,0.3-0.6
	C55.9,23.3,56.5,22.4,56.9,23.1z"/>
<path fill-rule="evenodd" clip-rule="evenodd" fill="#FFFFFF" d="M51.5,23.3c0.1,1.1-0.9,1.6-1.9,1.4C49.3,23.5,50.8,22.3,51.5,23.3
	z"/>
<path fill-rule="evenodd" clip-rule="evenodd" fill="#FFFFFF" d="M21.4,24.9c-0.1,0.3-0.6,0.2-0.9,0.2c-0.3,0-0.7,0-1-0.1
	c-0.6-0.1-1.1-0.6-1.6-0.7C17.1,24,16.1,24,16,23.2c0.7-0.7,1.7,1.1,3.1,0.7C19.7,24.4,20.7,24.5,21.4,24.9z"/>
<path fill-rule="evenodd" clip-rule="evenodd" fill="#FFFFFF" d="M52.5,23.8c1.3-0.2,0.4,1.9-0.4,1.8c-0.4,0-0.7-0.5-0.7-0.8
	C51.5,24.3,52.2,23.9,52.5,23.8z"/>
<path fill-rule="evenodd" clip-rule="evenodd" fill="#FFFFFF" d="M32.5,25.9c0.2,0.3,0.6,0.6,0.4,1.1c-0.4,0-0.6,0.3-0.9,0.2
	c-0.6-0.1-0.8-1.1-1.7-1c-0.3-0.2-0.6-0.8-0.4-1.3c0.7-0.2,1.1,0.5,1.5,0.9c0.2-0.4,0.7-0.2,1,0C32,25.4,32,24.4,32.6,24
	c0.6,0.2,0.8,1.1,0.6,1.9c0.7,0.1,1,0.7,1,1.6c-0.2,0.1-0.4,0.2-0.7,0.2c-0.1-0.5-0.4-0.8-0.4-1.3C32.9,26,32.7,26,32.5,25.9z"/>
<path fill-rule="evenodd" clip-rule="evenodd" fill="#FFFFFF" d="M35.1,24c0.3,0.2,0.2,1.2,0.5,1.6c-0.8,0.8,0.4,1.8,0,2.9
	c-0.4-0.2-0.7-0.6-0.6-1.3c0-0.2,0.2-0.3,0.2-0.5C35.4,25.7,34.5,24.7,35.1,24z"/>
<path fill-rule="evenodd" clip-rule="evenodd" d="M22.7,24.1c0.2,0.3,0.5,0.6,1.1,0.4c0.1,0.3,0.4,0.6,0.7,0.7
	c0,0.3-0.2,0.4-0.3,0.6c-0.1-0.1,0-0.5-0.1-0.6c-0.7,0-1.1-0.4-1.5-0.7C22.5,24.2,22.7,24.2,22.7,24.1z"/>
<path fill-rule="evenodd" clip-rule="evenodd" fill="#FFFFFF" d="M56.8,24.4c-0.1,0.1-0.1,0.3-0.4,0.2
	C56.5,24.5,56.6,24.3,56.8,24.4z"/>
<path fill-rule="evenodd" clip-rule="evenodd" fill="#FFFFFF" d="M55.2,24.9c-0.3,0.6-1,1.3-1.9,1c-0.1-0.3,0-0.6,0.1-1
	C53.8,24.7,54.9,24,55.2,24.9z"/>
<path fill-rule="evenodd" clip-rule="evenodd" fill="#FFFFFF" d="M29.4,25.2c-0.1,0-0.1,0.1-0.1,0.1c-0.6-0.4-1.4,0.3-1.5-0.5
	c0.4-0.1,0.6,0,0.7,0.2C28.6,24.6,29.5,24.6,29.4,25.2z"/>
<path fill-rule="evenodd" clip-rule="evenodd" fill="#FFFFFF" d="M49.7,25.1c-0.4,0.7-0.7,1.5-1.3,2c-0.5,0.1-0.7-0.1-0.9-0.3
	c-0.3,0.5-0.2,1.5-0.7,1.9c-0.4,0-0.6,0-0.9-0.1c-0.7-0.8,0-2.5,1.2-2.2C47.3,25.3,48.7,24.3,49.7,25.1z"/>
<path fill-rule="evenodd" clip-rule="evenodd" fill="#FFFFFF" d="M23.2,26.3c-0.8,0.4-1.8,0-2.7,0c-0.4,0-0.7,0.1-1,0.1
	c-0.2,0-0.3-0.2-0.5-0.3c-0.1-0.1-0.4,0-0.5,0c-0.1,0-0.3-0.2-0.4-0.2c-0.5-0.2-0.7-0.3-1-0.5c0-0.1,0-0.1,0-0.2
	c0.1,0,0.1-0.1,0.2-0.1c0.7,0.4,1.5,0.6,2.2,0.9c0.2-0.1,0.5-0.1,0.7-0.2c0.3,0.1,0.7,0.2,1.2,0.2C21.9,26,23,25.7,23.2,26.3z"/>
<path fill-rule="evenodd" clip-rule="evenodd" fill="#FFFFFF" d="M51.7,26c-0.2,1-1.6,2.3-2.6,1.3c0-0.3,0.1-0.6,0.3-0.9
	C49.9,25.7,51.2,25.1,51.7,26z"/>
<path fill-rule="evenodd" clip-rule="evenodd" fill="#FFFFFF" d="M53.4,26.4c0,0.5,0.1,0.8-0.1,1.2c-0.8,0.1-1.7,1-2.3,0.2
	C51.2,26.8,52.3,26,53.4,26.4z"/>
<path fill-rule="evenodd" clip-rule="evenodd" fill="#FFFFFF" d="M58.5,26.2c-0.7,0.8-1.7,1.3-2.8,1.8c-0.7,0.3-1.5,0.9-2.5,0.6
	c0.2-0.5,1-0.4,1.2-0.8C56.3,27.8,56.8,26.3,58.5,26.2z"/>
<path fill-rule="evenodd" clip-rule="evenodd" fill="#FFFFFF" d="M28.3,26.3c0.5,0.2,2-0.2,1.6,0.8c-0.6-0.1-1.1-0.4-1.8-0.5
	C28.1,26.4,28.3,26.5,28.3,26.3z"/>
<path fill-rule="evenodd" clip-rule="evenodd" fill="#FFFFFF" d="M32.1,27.8c0.2-0.1,0.2-0.4,0.4-0.4c0.7,0,0.8,0.5,1.3,0.8
	c0.1-0.2,0.1-0.5,0.3-0.5c0.9-0.1,1.1,1.2,0.7,1.7c-0.3-0.2-0.8-0.1-0.8-0.5c-0.5,0.5-1.3,0.2-1.6-0.2c-0.8,0-1.5-0.4-1.5-0.9
	C30.8,26.8,31.8,27.2,32.1,27.8z"/>
<path fill-rule="evenodd" clip-rule="evenodd" fill="#FFFFFF" d="M36.5,27.5c0.2,0,0.2,0.1,0.1,0.2c-0.1,0-0.1,0-0.2,0
	C36.4,27.6,36.5,27.6,36.5,27.5z"/>
<path fill-rule="evenodd" clip-rule="evenodd" fill="#FFFFFF" d="M49.6,27.9c0.1,0.8-0.5,1-0.6,1.6c-0.4,0.3-1.7,0.6-2.1,0.1
	c-0.1,0.4,0,0.5,0,1c-0.3,0.2-0.5,0.5-1,0.4c-0.2-0.2-0.3-0.4-0.2-0.7c-1.2,0.1-1.6-2.2,0-1.9c0,0.4,0.3,0.6,0.4,1
	c0.2,0,0.8-0.4,1-0.1C47.4,28.5,48.4,27.5,49.6,27.9z"/>
<path fill-rule="evenodd" clip-rule="evenodd" fill="#FFFFFF" d="M30.8,28.5c-0.3,0.2-1.4,0-1.6-0.4C29.9,28.3,30.7,27.8,30.8,28.5z
	"/>
<path fill-rule="evenodd" clip-rule="evenodd" fill="#FFFFFF" d="M36.5,28.1c0.1,0.2,0.5,0.9,0,1C36.3,28.9,36.4,28.4,36.5,28.1z"/>
<path fill-rule="evenodd" clip-rule="evenodd" fill="#FFFFFF" d="M51.1,28.3c0.8,1.1-0.6,2.2-1.8,2.2c0-0.3-0.3-0.5-0.2-0.8
	c0-0.1,0.9-1.4,1.3-1.5C50.6,28.2,50.8,28.3,51.1,28.3z"/>
<path fill-rule="evenodd" clip-rule="evenodd" fill="#FFFFFF" d="M62,28.4C62.1,28.4,62.1,28.5,62,28.4c-0.7,0.9-1.7,1.5-2.5,2.4
	c-0.4,0.4-0.8,0.9-1.5,0.9c0.2-0.9,1.2-1.3,1.9-1.8C60.5,29.3,61.2,28.8,62,28.4z"/>
<path fill-rule="evenodd" clip-rule="evenodd" fill="#FFFFFF" d="M35,30.4c0-0.3,0-1.2,0.7-1c0.4,0.5,0.5,1.4,0.2,2.1
	c-0.2-0.2-0.6-0.2-0.7-0.6c-0.2,0.4-0.9,0.7-1.3,0.4c-0.2,0.2,0.3,0.4,0.3,0.7c0.7-0.3,1.5,0.2,1.4,1.1c-0.2,0.2-0.7,0.1-0.8,0.4
	c-0.4-0.1-0.6-0.5-0.6-1c-0.4-0.3-0.6-0.4-1.2-0.3c-0.3-0.4-1-0.4-0.9-1c0.1-0.5,0.9-0.5,1.4-0.2c0.1-1-1-0.2-1.3-0.7
	c-0.2,0.1-0.2,0.3-0.4,0.4c-0.5,0-1.1,0.1-1.1-0.4c-0.2,0-0.5,0-0.5-0.2c0.5-0.1,1.1,0,1.6,0.1c0-1,1-0.8,1.5-0.4
	c0.2,0,0.2-0.1,0.4-0.2C34.3,29.6,34.7,29.9,35,30.4z"/>
<path fill-rule="evenodd" clip-rule="evenodd" fill="#FFFFFF" d="M56.7,29.1c0.1,0,0.2,0.1,0.1,0.2c-1,0.7-2,1.2-2.9,2
	c-0.5,0.4-0.7,0.9-1.5,1c0.2-0.9,1.2-1.3,1.9-1.8C55.1,30.1,55.9,29.5,56.7,29.1z"/>
<path fill-rule="evenodd" clip-rule="evenodd" fill="#FFFFFF" d="M54.8,29.2c0.2,0,0.2,0.1,0.1,0.2c-0.4,0.2-0.8,0.4-1.3,0.6
	c-0.7,0.3-1.2,0.9-2.2,0.8c-0.1-0.6,0.7-0.8,1.3-1C53.4,29.6,54.1,29.5,54.8,29.2z"/>
<path fill-rule="evenodd" clip-rule="evenodd" fill="#FFFFFF" d="M58.3,29.6c-0.1,0.4-0.4,0.6-0.7,0.8c-0.7,0.6-1.4,1.4-2.5,1.7
	c0.2-0.7,0.7-1.1,1.4-1.6C57.1,30,57.5,29.4,58.3,29.6z"/>
<path fill-rule="evenodd" clip-rule="evenodd" fill="#FFFFFF" d="M36.5,29.6c0.2,0.1,0.1,0.5-0.1,0.4C36.3,29.8,36.4,29.7,36.5,29.6
	z"/>
<path fill-rule="evenodd" clip-rule="evenodd" d="M44.5,30c0.4,0.6-0.3,1.2,0,1.8c0.4-0.2,0.6-0.4,1-0.6c0.4,0.1,0.7,0.5,0.6,0.9
	c0.2,0.2,0.6,0.1,0.7,0.3c0.1,1.2-1,1.3-1.9,1.3c-0.1-0.2-0.5-0.2-0.3-0.4c-0.3,0-0.6,0.2-0.8,0.1c0-0.2-0.3-0.4-0.1-0.6
	c-0.2-0.1-0.3-0.3-0.4-0.4C43.4,31.2,43.3,30,44.5,30z M44.7,33c0.4,0,0.5-0.3,0.7-0.4C45.1,32.6,44.8,32.6,44.7,33z"/>
<path fill-rule="evenodd" clip-rule="evenodd" fill="#FFFFFF" d="M17.4,33.8c-1,0.1-1.6-0.9-2.3-1.3c-0.8-0.5-1.8-0.7-2.5-1.4
	c-0.5-0.1-0.9-0.2-1.1-0.5c0-0.4,0.5-0.3,0.9-0.3c0.6,0.6,1.8,0.9,2.6,1.4c0.8,0.5,1.4,1,2,1.7C17.2,33.5,17.5,33.5,17.4,33.8z"/>
<path fill-rule="evenodd" clip-rule="evenodd" fill="#FFFFFF" d="M49.2,30.8c0,0.6-0.5,0.9-0.9,1.1c-0.6-0.2-0.9,0.3-1.4,0.1
	c-0.2-0.8,0.6-1.2,1-1.6C48.4,30.5,48.8,30.7,49.2,30.8z"/>
<path fill-rule="evenodd" clip-rule="evenodd" fill="#FFFFFF" d="M21.1,35c-0.4,0.6-0.7,0-1-0.3c-0.3-0.3-0.5-0.8-0.7-1
	c-1.2-1.1-2.6-2.1-4.2-2.9c0-0.1,0-0.1,0-0.2c0.1,0,0.1-0.1,0.2-0.1c0.6,0.1,1,0.5,1.5,0.7c0.5,0.3,1,0.4,1.4,0.7
	c0.2,0.1,0.3,0.4,0.5,0.6c0.2,0.2,0.4,0.3,0.6,0.4c0.3,0.3,0.4,0.7,0.7,1C20.5,34.4,21.2,34.5,21.1,35z"/>
<path fill-rule="evenodd" clip-rule="evenodd" fill="#FFFFFF" d="M14.5,33.3c-0.2,0.5-0.8,0.2-1,0.1c-1.1-0.4-1.9-1.5-3.1-1.9
	c-0.6-0.2-1.4,0-1.8-0.7c0.1,0,0.1-0.1,0.2-0.1c0.7-0.1,1.8,0.4,2.7,0.7c0.8,0.3,1.6,0.8,1.9,1.3C13.9,32.8,14.2,33.1,14.5,33.3z"/>
<path fill-rule="evenodd" clip-rule="evenodd" fill="#FFFFFF" d="M62.3,31.4c-0.6,0.8-1.7,1-3,1C59.6,31.7,61.1,30.8,62.3,31.4z"/>
<path fill-rule="evenodd" clip-rule="evenodd" fill="#FFFFFF" d="M51.2,32c-0.6,0.3-1.2,1.1-2,1C49.3,32.1,50.5,31.4,51.2,32z"/>
<path fill-rule="evenodd" clip-rule="evenodd" fill="#FFFFFF" d="M10.9,33.1c-1.1,0.2-2.4-0.4-3.4-0.7c-0.4-0.1-1.1,0-1.2-0.4
	c0.1-0.4,0.4-0.2,0.7-0.1C8.3,32,10.2,32.3,10.9,33.1z"/>
<path fill-rule="evenodd" clip-rule="evenodd" fill="#FFFFFF" d="M36,33.4c-0.1-0.5-0.6-1.2,0-1.6c0.5,0.2,0.9,0.3,0.9,1
	C36.7,33.1,36.2,33.1,36,33.4z"/>
<path fill-rule="evenodd" clip-rule="evenodd" fill="#FFFFFF" d="M58.3,32.4c-0.3,0.2-1.1,1.3-1.5,1.3c-0.5,0-0.8-0.4-0.7-0.8
	c0.1-0.7,1.3-0.5,1.9-0.9C58.1,32,58.1,32.2,58.3,32.4z"/>
<path fill-rule="evenodd" clip-rule="evenodd" fill="#FFFFFF" d="M31.1,32.1c0.4-0.1,0.7,0,0.8,0.3C31.7,32.6,31.2,32.3,31.1,32.1z"
	/>
<path fill-rule="evenodd" clip-rule="evenodd" fill="#FFFFFF" d="M62,32.4c-0.2,1-1.4,1.6-2.3,1.3C60.2,32.9,61.1,32.6,62,32.4z"/>
<path fill-rule="evenodd" clip-rule="evenodd" fill="#FFFFFF" d="M5.4,32.9c-0.6,0.4-1.3,0.3-1.9,0.4c-0.5,0.1-1.1,0.5-1.5,0.7
	c-0.4,0.3-0.8,0.9-1.4,0.6c0-0.6,0.8-0.9,1.5-1.2c0.6-0.3,1.3-0.8,1.7-1C4.2,32.4,5.2,32.4,5.4,32.9z"/>
<path fill-rule="evenodd" clip-rule="evenodd" fill="#FFFFFF" d="M34.4,33.5c-0.1,0.3-0.3,0.5-0.3,0.6c-0.5-0.2-0.9-0.7-1.3-1
	C33,31.8,34.2,33,34.4,33.5z"/>
<path fill-rule="evenodd" clip-rule="evenodd" fill="#FFFFFF" d="M55.9,33c-0.3,0.7-1.2,1.4-2.1,0.9c-0.1,0.9-1.5,2.5-1.9,1.1
	c-0.5,0.4-0.8,1-1.6,1.1c0-0.1-0.1-0.1-0.2-0.1c-0.1-0.1,0-0.6-0.2-0.6c0.2-0.7,1.1-1.6,1.9-0.9c0.6-0.3,0.7-1.1,1.5-1.2
	c0.2,0,0.3,0.2,0.4,0.2C54.1,33.1,55.3,32,55.9,33z"/>
<path fill-rule="evenodd" clip-rule="evenodd" fill="#FFFFFF" d="M51.8,32.8c0.2,0.1-0.1,0.4-0.3,0.3C51.5,32.9,51.8,32.9,51.8,32.8
	z"/>
<path fill-rule="evenodd" clip-rule="evenodd" fill="#FFFFFF" d="M59.5,33.1c0.4,0.9-1.3,1.1-1.5,0.4C58.1,32.9,59,32.9,59.5,33.1z"
	/>
<path fill-rule="evenodd" clip-rule="evenodd" fill="#FFFFFF" d="M10.1,33.7c0.7-0.5,1.5,0,1.7,0.5c0.1-0.1,0.1-0.3,0.2-0.4
	c0.8-0.3,1.7,0,1.9,0.7c0.2-0.5,1.2-0.6,1.6-0.3c0,0.5,0.3,0.7,0.4,1c-0.5,0.5-1.9,0.7-1.9-0.4c-0.2,0.1-0.2,0.4-0.4,0.5
	c-0.7,0-1.7-0.3-1.9-1c-0.2,0.1-0.2,0.4-0.4,0.5c-0.7,0.2-1.4-0.1-1.5-0.7c-0.5,0.2-0.8,0.7-1.6,0.6c-0.2-0.6-0.6-0.8-1.1-0.3
	c-0.8-0.1-1.1-1.4,0.2-1.2c0.1,0.1,0.3,0.2,0.3,0.4C8,32.9,10.1,32.7,10.1,33.7z"/>
<path fill-rule="evenodd" clip-rule="evenodd" fill="#FFFFFF" d="M23.4,36.5c-0.4,0.1-0.5-0.3-0.7-0.4c-0.4-0.4-0.5-0.6-0.7-1.1
	c-0.3-0.5-0.9-0.8-1-1.4c1.1-0.9,1.7,1.3,2.2,2.2C23.3,35.9,23.6,36.2,23.4,36.5z"/>
<path fill-rule="evenodd" clip-rule="evenodd" fill="#FFFFFF" d="M35.9,34.8c0-0.5,0-0.9,0.3-1.1c0,0,0.6-0.1,0.5-0.1
	c0.3,0.1,0.6,0.6,0.5,0.9C37.2,34.9,36.4,35.3,35.9,34.8z"/>
<path fill-rule="evenodd" clip-rule="evenodd" fill="#FFFFFF" d="M6.4,33.8C6.6,34.4,6.3,35,6,35.3c-0.5,0.2-0.9,0.1-1.5,0.1
	c-0.2-0.2-0.3-0.6-0.4-0.9C4.4,33.9,5.7,33.3,6.4,33.8z"/>
<path fill-rule="evenodd" clip-rule="evenodd" fill="#FFFFFF" d="M32.4,33.6c0.4,0,0.5,0.2,0.6,0.5C32.5,34.2,32.2,34,32.4,33.6z"/>
<path fill-rule="evenodd" clip-rule="evenodd" fill="#FFFFFF" d="M57.6,33.8c0,0.2,0,0.5,0,0.7c-0.2,0.2-0.4,0.4-0.7,0.5
	c0.3,0.6-0.2,1.4-1,1.3c-0.4-0.4-0.1-1,0.4-1.1c-0.4-0.2-1-0.2-0.9-0.7c0-0.2,0.2-0.2,0.3-0.4C56.6,34.1,56.9,33.4,57.6,33.8z"/>
<path fill-rule="evenodd" clip-rule="evenodd" fill="#FFFFFF" d="M34.8,34c0.8-0.4,1.6,1.8,0.2,1.6C34.6,35.5,34,34.3,34.8,34z"/>
<path fill-rule="evenodd" clip-rule="evenodd" fill="#FFFFFF" d="M18,35.5c-0.2,0.1-0.2,0.4-0.6,0.3c0.3,0.3,0.8,0.5,0.7,1.1
	c0,0.3-0.2,0.5-0.4,0.7c-0.6-0.1-0.9-0.1-1.3-0.1c-0.2-0.6,0.2-0.9,0.4-1.3c-0.1-0.5-0.7-0.9-0.6-1.3C16.3,34,18.3,34.2,18,35.5z"/>
<path fill-rule="evenodd" clip-rule="evenodd" fill="#FFFFFF" d="M61,34.5c-0.2,0.7-1.3,1.2-2.1,0.9c0-0.3,0.1-0.5,0.3-0.6
	C60,34.9,60.4,34.4,61,34.5z"/>
<path fill-rule="evenodd" clip-rule="evenodd" fill="#FFFFFF" d="M7.5,34.6c0.7,0.6-0.5,1.4-1,1C6.2,34.9,6.8,34.5,7.5,34.6z"/>
<path fill-rule="evenodd" clip-rule="evenodd" fill="#FFFFFF" d="M55.1,35c-0.1,1-1.2,1.4-2.2,1.1C52.5,35,54.5,34.2,55.1,35z"/>
<path fill-rule="evenodd" clip-rule="evenodd" fill="#FFFFFF" d="M57.9,35.6c-0.3-0.2,0-0.5,0.1-0.8c0.3-0.1,0.7-0.2,1-0.1
	C58.9,35.3,58.3,35.4,57.9,35.6z"/>
<path fill-rule="evenodd" clip-rule="evenodd" fill="#FFFFFF" d="M9.4,35.1c0,0.8-0.5,1.2-1.2,1.3c0-0.1-0.1-0.1-0.1-0.1
	C7.5,35.6,8.6,34.4,9.4,35.1z"/>
<path fill-rule="evenodd" clip-rule="evenodd" fill="#FFFFFF" d="M34.3,35c0.1,0.2,0.2,0.5,0.1,0.7C33.6,36.1,33.3,34.5,34.3,35z"/>
<path fill-rule="evenodd" clip-rule="evenodd" fill="#FFFFFF" d="M19.8,35.6c0.6-0.3,1.5,0,1.6,0.5c-0.1,0.3-0.5,0.2-0.5,0.5
	c0.5,0.3,0.6-0.5,1.3-0.3c0.4,0.4,0.5,1.1-0.1,1.4c-0.3,0-0.3-0.3-0.4-0.4c-0.2,0.4-1,0.5-1.4,0.2c-0.1-0.5,0.1-0.6,0.3-0.8
	c0-0.1-0.2-0.1-0.3-0.1c-0.2,0.1,0,0.4-0.2,0.7c-0.3,0.3-0.8,0.3-1.3,0.3c-0.6-0.3-0.4-1.1,0.2-1.2c-0.2-0.1-0.4-0.2-0.6-0.3
	c-0.1-0.3-0.2-0.9-0.1-1.1C18.8,34.9,19.8,35,19.8,35.6z M19.2,36.4c0.3,0,0.4,0.2,0.7,0.2c0.1-0.4,0-0.6-0.1-0.8
	C19.6,36,19.4,36.1,19.2,36.4z"/>
<path fill-rule="evenodd" clip-rule="evenodd" fill="#FFFFFF" d="M11.9,35.9c0,0.6-0.3,0.4-0.7,0.4c-0.7,0.1-1.6,0.3-1.6-0.4
	c0-0.2,0.6-0.8,0.7-0.8C11,34.9,11.5,35.6,11.9,35.9z"/>
<path fill-rule="evenodd" clip-rule="evenodd" fill="#FFFFFF" d="M47.9,37c-0.3-0.1-0.4-0.5-0.7-0.6c0.4-0.6,1.3-0.7,1.6-1.3
	c0.7-0.1,0.9,0.3,0.9,0.6c0,0.2-0.1,0.3-0.4,0.5C49.1,36.5,48.5,37,47.9,37z"/>
<path fill-rule="evenodd" clip-rule="evenodd" fill="#FFFFFF" d="M4.8,35.9c-0.3,0.5-0.8,0.1-1.3,0C2.3,35.8,0.9,36.6,0,36
	c0-0.5,0.7-0.4,1.2-0.5C2.4,35.3,3.9,35.4,4.8,35.9z"/>
<path fill-rule="evenodd" clip-rule="evenodd" fill="#FFFFFF" d="M13.4,35.5c0.7,0.6,0.2,2.1-1,1.6c-0.1-0.6-0.4-0.9-0.3-1.6
	C12.5,35.1,12.9,35.6,13.4,35.5z"/>
<path fill-rule="evenodd" clip-rule="evenodd" fill="#FFFFFF" d="M23.9,35.4c0.1,0,0.1,0,0.2,0c0.7,0.8,1.1,2,1.6,2.9
	c-0.6,0.2-0.6-0.4-0.7-0.7c-0.3-0.7-0.7-1.3-1.2-1.9C23.8,35.6,23.8,35.5,23.9,35.4z"/>
<path fill-rule="evenodd" clip-rule="evenodd" d="M19.8,35.8c0.2,0.2,0.3,0.5,0.1,0.8c-0.3,0-0.4-0.2-0.7-0.2
	C19.4,36.1,19.6,36,19.8,35.8z"/>
<path fill-rule="evenodd" clip-rule="evenodd" fill="#FFFFFF" d="M52.6,36.2c0.1,1-1.3,0.7-2,1c-0.2,0,0.1,0.1,0,0.3
	c-0.5,0.2-0.9,0.9-1.6,0.9c-0.4,0-0.8-0.3-1.1-0.5c0.1-1,1.7-1.7,2.2-0.7C50.1,36.2,51.7,35.3,52.6,36.2z"/>
<path fill-rule="evenodd" clip-rule="evenodd" fill="#FFFFFF" d="M16,37.1c-0.4,0.1-1.3,0.2-1.7,0C13.4,35.4,16.6,35.6,16,37.1z"/>
<path fill-rule="evenodd" clip-rule="evenodd" fill="#FFFFFF" d="M60,36c-0.6,1-2.4,1.2-3.7,1.2c0.1-0.4,0.5-0.2,0.7-0.3
	C58,36.6,58.7,36.1,60,36z"/>
<path fill-rule="evenodd" clip-rule="evenodd" fill="#FFFFFF" d="M35.3,36.5c-0.3,0.3-1.2,0-1.4-0.3C34.2,35.9,34.7,36.7,35.3,36.5z
	"/>
<path fill-rule="evenodd" clip-rule="evenodd" fill="#FFFFFF" d="M55.2,36.4c0.1,0.6-0.4,0.6-0.9,0.6c-0.3,0.1-0.6,0.5-1,0.2
	C53.4,36.4,54.5,36.3,55.2,36.4z"/>
<path fill-rule="evenodd" clip-rule="evenodd" fill="#FFFFFF" d="M47.2,36.5c-0.1,0.5-0.9,1.2-1.3,1.6c-0.3,0.2-0.8,0-1.3-0.2
	C44.6,36.6,45.9,36.2,47.2,36.5z"/>
<path fill-rule="evenodd" clip-rule="evenodd" fill="#FFFFFF" d="M12.2,37.5c-0.4,0.5-1.2,0.3-2,0.4c-1.9,0.1-4.4,0-6.3-0.4
	c0-0.1-0.1-0.1-0.1-0.1c0-0.1,0.1-0.1,0.1-0.1C6.5,37.4,9.5,37.9,12.2,37.5z"/>
<path fill-rule="evenodd" clip-rule="evenodd" fill="#FFFFFF" d="M24.1,39.3c-0.4,0.7-1.8,0.4-1.8-0.5c0.1-0.2,0.3-0.3,0.5-0.4
	c0-0.2-0.3-0.2-0.3-0.4c0.1-0.3,0.3-0.5,0.4-0.8c0.8-0.1,1.3,0.9,1,1.4C24,38.8,24.1,39,24.1,39.3z"/>
<path fill-rule="evenodd" clip-rule="evenodd" fill="#FFFFFF" d="M52.8,37.6c-0.2,0.7-0.9,1.2-1.8,0.9c-0.1-0.3-0.3-0.5-0.1-0.8
	c0.4-0.2,0.7-0.4,1.2-0.4C52.3,37.3,52.5,37.7,52.8,37.6z"/>
<path fill-rule="evenodd" clip-rule="evenodd" fill="#FFFFFF" d="M44.1,38.2c-0.6,0.6-1,1.3-1.7,1.8c-0.6-0.3-0.5-1.1-0.1-1.5
	c0.1-0.2,0.5-0.2,0.7-0.4c0.4-0.3,0.2-0.7,0.7-0.6C44,37.6,44.1,37.9,44.1,38.2z"/>
<path fill-rule="evenodd" clip-rule="evenodd" fill="#FFFFFF" d="M58.1,37.7c-0.5,0.6-1.7,1.2-2.7,0.6c-0.7,0-1.2,0.2-1.8,0
	c0.2-0.5,1-0.2,1.7-0.3C55.9,37.4,57.2,37.8,58.1,37.7z"/>
<path fill-rule="evenodd" clip-rule="evenodd" fill="#FFFFFF" d="M48.2,38.3c-0.5,0.7-1.4,1.3-2.4,0.8c-0.3,0.1-0.3,0.5-0.6,0.7
	c-0.4,0.2-1.1,0.2-1.6,0c0-0.9,0.9-1.3,1.8-1c0.4-0.6,0.9-1.1,2.1-1C47.7,38,47.9,38.2,48.2,38.3z"/>
<path fill-rule="evenodd" clip-rule="evenodd" fill="#FFFFFF" d="M15,38.2c0.1,0.2-0.5,0.5-0.7,0.6c-0.6,0.3-1.3,0.4-2.2,0.5
	c-2.1,0.3-5.2,0.2-6.9-0.4c1-0.3,1.9,0.2,2.9,0.1c1.7-0.1,3.8,0.1,5.4-0.4C14,38.5,14.5,38.1,15,38.2z"/>
<path fill-rule="evenodd" clip-rule="evenodd" fill="#FFFFFF" d="M26,39.7c-0.3-0.2-0.4,0.5-0.5,0.7c-0.4,0-0.8,0-1-0.2
	c0-0.5-0.1-0.6,0.1-0.8c-0.1-0.4-0.4-0.5-0.2-0.9c0.8-0.3,1.3,0.5,1.6,1c0.2,0,0.3-0.2,0.4,0c3.2,0.9,5.4,2.7,7.4,4.9
	c-0.1,0.7,0.3,1.2,0.2,1.9c0,0.3,0.4,0.6,0,0.8c-0.3-0.3-0.2-0.8-0.3-1.2c-0.3-1.1-1.1-1.9-1.9-2.5c-0.1-0.1-0.1-0.2-0.1-0.3
	c-0.6-0.5-1.1-1.1-1.8-1.5c-0.7-0.4-1.5-0.5-2.3-0.9c-0.7,0.1-0.8-0.3-1.5-0.2C26,40.3,25.6,39.9,26,39.7z"/>
<path fill-rule="evenodd" clip-rule="evenodd" fill="#FFFFFF" d="M50.9,39.2c-0.1,0.3,0.1,0.5,0,0.9c-0.5,0.4-1.2-0.1-1.6-0.2
	c0.3,0,0.5-0.7,0.1-0.7C49.7,38.7,50.5,39.1,50.9,39.2z"/>
<path fill-rule="evenodd" clip-rule="evenodd" fill="#FFFFFF" d="M49.2,39.8c-0.4,0.1,0,0.5-0.2,0.7c-0.3,0-0.4,0.2-0.7,0.2
	c0.7,0.6,1.5-0.1,2.5,0c-0.4,0.4-2.1,0.7-2.9,0.4c-0.1-0.3,0.1-0.3,0.3-0.3c-0.3-0.2-0.7-0.3-1.3-0.3c0,0.5,0.3,0.6-0.1,0.9
	c0.3,0,0.8-0.1,0.9,0.1c-0.4,0.6-1.8,0.7-2.5,0.2c0.1-0.6,1-0.2,1.5-0.2c-0.2-0.3-0.8-0.1-1-0.2C45,41,45.1,40,46.1,40.1
	c0.3,0,0.5,0.3,0.8,0.4C47.1,39.5,48.5,39.2,49.2,39.8z"/>
<path fill-rule="evenodd" clip-rule="evenodd" fill="#FFFFFF" d="M54.4,39.5c-0.7,0.4-2.2,0.8-3.1,0.4c0.2-0.7,0.9-0.3,1.3-0.3
	C53.2,39.6,53.8,39.3,54.4,39.5z"/>
<path fill-rule="evenodd" clip-rule="evenodd" fill="#FFFFFF" d="M44.6,41.2c0.1,0.3-0.2,0.3-0.2,0.4c-0.8-0.1-1.4-0.4-1.8-0.8
	C43,39.4,44,40.9,44.6,41.2z"/>
<path fill-rule="evenodd" clip-rule="evenodd" fill="#FFFFFF" d="M21.1,40.3c-0.1,0.5-0.6,1-1.2,1.3c-0.6,0.3-1.7,0.5-2.6,0.5
	c-0.5,0-1,0-1.5,0c-0.6,0-1.3-0.1-1.6-0.5c1.1-0.3,1.9,0,3-0.1c0.3,0,0.5-0.2,0.7-0.2c0.4-0.1,0.8,0,1.1-0.1c0.6-0.2,1-0.6,1.5-0.9
	C20.6,40.2,20.9,40.2,21.1,40.3z"/>
<path fill-rule="evenodd" clip-rule="evenodd" fill="#FFFFFF" d="M42.1,40.6c-0.2,0.9-1.1,1.2-1.6,1.9c-0.1,0.2-0.2,0.4-0.4,0.7
	c-0.5,0.8-0.6,1.9-1.1,3c-0.1,0.3,0,0.7-0.3,0.7c-0.7-0.3,0-1.2,0.1-1.6c0.4-0.4,0.2-1,0.4-1.6c0.2-0.7,0.5-1.5,1-2
	c0.1-0.1,0.3-0.1,0.5-0.3C41.1,41.1,41.3,40.4,42.1,40.6z"/>
<path fill-rule="evenodd" clip-rule="evenodd" fill="#FFFFFF" d="M26.3,41.1c-0.4,0.4-1.3,0.5-2.2,0.6c-0.8,0.1-1.9,0.1-2.5-0.1
	c0.4-0.5,1.1-0.4,2.1-0.4C24.7,41.2,25.6,41.1,26.3,41.1z"/>
<path fill-rule="evenodd" clip-rule="evenodd" d="M39.1,0.4c0,0.5,0.2,0.9,0.2,1.4c0.1,1.7,0.1,3.6,0.3,5.2c0.4-0.2,0.2-0.8,0.3-1.2
	c0.1-0.4,0.3-0.7,0.2-1.1c0-0.2-0.2-0.5-0.2-0.7c-0.1-1.3,0.5-3-0.4-3.9C39.2,0,39.2,0.3,39.1,0.4z"/>
<path fill-rule="evenodd" clip-rule="evenodd" d="M36.2,7.2c-0.1-0.2,0-0.5,0-0.7c-0.1-0.5-0.4-1.1-0.4-1.5
	c-0.1-1.4,0.6-2.9,0.3-4.3c-0.1,0-0.1-0.1-0.2-0.1c-0.6,0.5-0.4,1.2-0.4,2.1c0,0.2-0.1,0.3-0.1,0.5c-0.1,0.6,0,1.7-0.1,2.4
	c0,0.9,0.2,1.1,0.4,1.7c0.1,0.4-0.1,0.8,0.2,1c0.3,0.2,0.5-0.2,0.7,0c0,0.4-0.3,0.5-0.2,1c0.2,0.4,0.5,0.7,0.7,1
	c0.3,0.1,0.4,0.1,0.7,0c-0.2,0.3-0.4,0.5-0.5,0.9c0.3,0.5-0.2,1,0.2,1.5c0.3,0,0.6,0.2,0.9,0.2c0.2-0.1,0.3-0.3,0.4-0.5
	c0.2,0.1,0.4,0,0.7,0.1c0.3-0.2,0.4-1.2,0.1-1.6c-0.3-0.1-0.7-0.1-0.9,0.1c-0.2-0.3-0.3-0.7-0.9-0.7c0.2-0.2,0.2-0.5,0.5-0.5
	c0.7,0.1,1.1-0.5,1.2-1.2c-0.4,0.2-0.7,0.1-1,0.1c-0.3,0.1-0.3,0.5-0.5,0.7c-0.2-0.5-0.3-1.1-0.5-1.5c-0.1-0.2,0.2-0.1,0.1-0.4
	c-0.5-1.7-0.4-4.3-0.5-6.1c0-0.2,0.2-0.6-0.1-0.6c-1,1.6-0.4,4.1-0.2,6.3c0.1,0.2,0.4,0.5,0.2,0.7C36.7,7.9,36.3,7.5,36.2,7.2z"/>
<path fill-rule="evenodd" clip-rule="evenodd" d="M38.1,4c0.1,0.8,0,1.6,0,2.4c0,0.1,0.1,0.3,0.2,0.4c0.1,0.7,0,1.2,0.4,1.4
	c0.8-0.4,0.4-1,0.2-1.6c-0.4-1.8,0-4.5-0.7-5.9c-0.1,0-0.1-0.1-0.2-0.1C37.3,1.8,37.9,2.8,38.1,4z"/>
<path fill-rule="evenodd" clip-rule="evenodd" d="M41.2,3.6c0,0.1-0.1,0.1-0.1,0.2c0,0.6-0.4,1.3-0.5,2c-0.1,0.7,0.1,1.5,0,2.2
	c-0.1,0.9-1,1.8-0.4,2.5c0.2-0.5,0.4-0.9,0.6-1.6C41,8.5,41,7.8,41.2,7.2c0-0.2,0.2-0.3,0.2-0.5c0.1-0.6-0.1-1.1,0-1.6
	c0.1-0.6,0.6-1.2,0-1.5C41.3,3.6,41.3,3.6,41.2,3.6z"/>
<path fill-rule="evenodd" clip-rule="evenodd" d="M32.7,3.9c0,0.1,0,0.1,0,0.2c0.4,0.5,0.7,1.3,0.7,2.2c0.6,1,0.8,2.5,1.3,3.3
	c0.1,0.2,0.3,0.6,0.5,0.7c-0.3-2-1.1-3.7-1.2-5.7c-0.6,0-0.5-0.7-1-0.8C32.9,3.8,32.8,3.8,32.7,3.9z"/>
<path fill-rule="evenodd" clip-rule="evenodd" d="M32,4.7c-0.4,1.1,0.4,2.3,0.7,3.2c-0.2,1.2,0.4,1.9,0.8,2.7c0.4,0.7,0.6,1.4,1,1.9
	c-0.2-1.4-1.1-2.7-1.4-4.3c-0.1-0.2-0.3-0.2-0.4-0.4c0.2-1.2-0.4-2.2-0.6-3.1C32.1,4.7,32.1,4.7,32,4.7z"/>
<path fill-rule="evenodd" clip-rule="evenodd" d="M12.6,8.1c0.5,0.5,0.7,1.9,1.8,1.6c0.1-0.5-0.5-0.8-0.7-1.2
	c-0.2-0.5,0-1.1-0.4-1.5c-0.3-0.1-0.6-0.1-1-0.1C12.4,7.4,12.8,7.5,12.6,8.1z"/>
<path fill-rule="evenodd" clip-rule="evenodd" d="M10.4,7.3c0.2,0.9,0.8,1.5,1.4,2c0.2,0.6,1.3,1.5,1.7,0.5C13.1,9.5,12.9,9,12.2,9
	c-0.2-0.5-0.6-0.7-1-1c-0.2-0.2-0.2-0.7-0.5-0.7C10.6,7.2,10.5,7.3,10.4,7.3z"/>
<path fill-rule="evenodd" clip-rule="evenodd" d="M30.9,7.5c0.1,0.7,0.1,1.4,0.4,2c0.2,0.4,0.5,0.7,0.7,1c0.3,0.5,0.5,1.2,0.7,1.7
	c0.3,0.7,0.5,1.3,0.7,1.7c0.3,0.4,0.9,1.2,1.6,0.9c-0.1-0.3-0.5-0.4-0.7-0.7c-0.2-0.6-0.6-1.1-0.9-1.6c-0.3-0.5-0.7-1.1-1-1.6
	c-0.4-0.9-0.7-1.9-1-2.8c-0.1-0.3-0.1-0.7-0.4-0.9c0,0-0.1,0-0.1,0C30.9,7.3,30.9,7.4,30.9,7.5z"/>
<path fill-rule="evenodd" clip-rule="evenodd" d="M15.9,9.2c-0.3-0.8-0.4-1.9-1.4-1.5c0.3,0.7,0.8,1,0.9,1.9c-0.5,0.1-0.8,0.3-1,0.7
	c-0.6-0.1-1.1,0.1-1.3,0.4c0,1.1,1.8,1.6,2.1,0.4c0.8,0.2,1.2-0.5,0.8-1c0.2,0,0.4,0,0.4-0.2C16.3,9.6,16,9.5,15.9,9.2z"/>
<path fill-rule="evenodd" clip-rule="evenodd" d="M20.4,13.7c-0.1-0.4,0-0.7-0.1-1.1c0-0.2-0.2-0.4-0.2-0.6c-0.1-0.5-0.1-1-0.3-1.5
	c-0.6-0.4-0.7-1.4-1.1-2.1c-0.6-0.3-0.7,0.3-0.8,0.7c0.4,0.4,0.7,0.8,0.8,1.4c0.7,0.4,0.8,1.5,1.1,2.3c-0.5,1,0,1.9,0.4,2.3
	c-0.2,0.1-0.1,0.6,0,0.7c0.1,0,0.3,0,0.4,0C20.9,15.2,20.5,14.3,20.4,13.7z"/>
<path fill-rule="evenodd" clip-rule="evenodd" d="M15.1,14.9c0.5,0.3,1.7,0.3,2.2,0.1C17.8,13.7,14.8,13.1,15.1,14.9z"/>
<path fill-rule="evenodd" clip-rule="evenodd" d="M17.4,14.3c0.4-0.1,0.7-0.3,1-0.5c-0.1-0.4,0.1-0.6,0.1-0.8
	c-0.1-0.2-0.2-0.3-0.2-0.5c0.1-0.1,0.1-0.3,0.1-0.5C18,10.6,18,8.4,16.2,8.5c0.2,1,1,1.5,1.3,2.3c0,0.1-0.1,0.3-0.1,0.4
	c0.1,0.5,0.5,1,0.6,1.6c-0.3,0-0.5-0.1-0.7-0.3c0-0.7-0.3-1.1-1-1c-0.3,0.2-0.2,0.7-0.4,1c-0.5-0.5-1.4,0-1.6,0.5
	c0.4,1.2,1.6,0.3,2.5,0.2C16.9,13.7,17.2,14,17.4,14.3z"/>
<path fill-rule="evenodd" clip-rule="evenodd" d="M42,8.5c-0.2,0.7-0.7,1.1-0.5,2.1c-0.4,0.6-0.2,1.5-0.4,2.2
	c-0.2,0.6-1,1.3-0.2,1.6c0.3-0.4,0.6-0.9,0.7-1.5c0.2-0.7,0.1-1.6,0.4-2.3c0.1-0.3,0.4-0.5,0.4-0.8c0.1-0.4-0.1-1,0.1-1.3
	C42.3,8.4,42.3,8.5,42,8.5z"/>
<path fill-rule="evenodd" clip-rule="evenodd" d="M12.5,11.2c-0.3-0.3-0.6-0.4-0.9-0.7c-0.4-0.3-0.6-0.7-1-1c-0.4-0.3-1-0.3-1.3-0.7
	c-0.1,0-0.1,0-0.2,0c-0.5,1.2,1.4,1.2,1.8,2c0.8,0.1,1,0.7,1.9,0.7C12.9,11.3,12.7,11.3,12.5,11.2z"/>
<path fill-rule="evenodd" clip-rule="evenodd" d="M43.5,9.3c0,0.2-0.2,0.3-0.3,0.4c-0.1,0.3-0.1,0.7-0.2,1.1
	c-0.1,0.4-0.3,0.9-0.4,1.4c-0.1,0.6-0.2,1.2-0.3,1.6c-0.1,0.4-0.5,0.6-0.4,1c-0.3,0.2-0.4,0.6-0.6,0.9c-0.2,0.3-0.7,0.7-0.3,1
	c0.3,0.1,0.6-0.4,0.7-0.6c0.7-0.8,0.8-1.4,1.3-2.5c0.2-0.6,0.5-1.1,0.7-1.6c0.1-0.4,0-0.9,0.1-1.3c0.1-0.4,0.4-0.8,0.2-1.2
	C43.7,9.4,43.8,9.3,43.5,9.3z"/>
<path fill-rule="evenodd" clip-rule="evenodd" d="M20.6,9.9c0.1,0.7,0.5,1.3,0.8,1.9c0.7,1.8,0.6,4,0.9,6.1c-0.1,0.4-0.5,0.5-0.4,1
	c0.4,0.5,0.9,0.1,1.1-0.3c-0.1-1.6-0.3-3.2-0.7-4.5c0.4-1-0.2-1.7-0.5-2.6c-0.3-0.8-0.3-1.8-1-1.9c0,0-0.1,0-0.1,0
	C20.6,9.8,20.6,9.9,20.6,9.9z"/>
<path fill-rule="evenodd" clip-rule="evenodd" d="M36,11.5c0,0.2,0.3,0.3,0.4,0.6c0.1,0.2-0.1,0.4,0.2,0.5c-0.6-0.1-0.4,0.6-0.7,0.7
	c0.3,0.6,1.2,1.2,1.7,0.5c0.1-0.7-0.4-0.9-0.7-1.3c0.5-0.3,0.3-1.4,0.2-2C36.4,10.6,36,10.9,36,11.5z"/>
<path fill-rule="evenodd" clip-rule="evenodd" d="M13.5,13.6c-0.3-0.2-0.5-0.5-0.7-0.7c-0.6-0.4-1.4-0.6-1.9-1
	c-0.4-0.3-0.7-0.8-1.4-0.7c-0.1,0-0.1,0.1-0.1,0.1c0,0.1-0.1,0.1-0.1,0.2c0.4,0.7,1.2,0.7,1.9,1.1c0.7,0.5,1.5,0.9,2.2,1.4
	c0.4,0.3,0.8,0.6,1.3,0.4C14.5,13.8,13.9,13.8,13.5,13.6z"/>
<path fill-rule="evenodd" clip-rule="evenodd" d="M23.2,13.6c0,0.3,0,0.6,0,0.8c0,0.3,0.2,0.5,0.3,0.7c0,0.1,0,0.3,0,0.4
	c0.2,1.1,0.1,2.1,0.4,3.2c-0.4,0.5-0.2,1.5,0.1,1.9c0.4-0.5,0.3-1.1,0.3-1.8c0-0.8,0-1.8-0.1-2.5c-0.1-0.4-0.3-0.9-0.4-1.3
	c0-0.2,0-0.5,0-0.7c-0.1-0.4-0.3-0.8-0.4-1.1c-0.1-0.4,0.1-0.9-0.4-1.1c0,0-0.1,0-0.1,0C22.9,12.8,23.1,13.1,23.2,13.6z"/>
<path fill-rule="evenodd" clip-rule="evenodd" d="M39.4,14.1c0.2,0,0.1-0.1,0.1-0.2c0.1-0.1,0.2,0,0.3-0.1c0.2-0.2,0.3-0.7,0.1-1.1
	C38.8,11.9,37.7,14.5,39.4,14.1z"/>
<path fill-rule="evenodd" clip-rule="evenodd" d="M44.4,13.1c-0.2,1.2-1,2.1-1.3,3.4c0.3-0.1,0.5-0.4,0.7-0.7c0.5-0.7,1.1-1.7,1-2.7
	C44.6,13.1,44.5,13.1,44.4,13.1z"/>
<path fill-rule="evenodd" clip-rule="evenodd" d="M29.3,21.4c0,0-0.3-0.3-0.5-0.4c-0.4-0.1-0.4-0.1-0.7,0.2
	c-0.5-0.6-0.9-1.3-1.6-1.6c-0.1,0.1-0.3,0.1-0.3,0.4c0.3,0.3,0.7,0.5,1,0.8c0.2,0.4,0.2,0.9,0.7,1c0.3,0.1,0.3-0.2,0.4-0.3
	c0.2,0.5,0.8,1,1.4,0.9c0.2,0.5,1.1,0.5,1.5,0.2c0.1-0.4-0.1-0.5-0.1-0.8c0.3,0.1,0.5,0.1,0.7-0.1c-0.1-0.8-0.5-1.8-1.3-1.3
	c0-0.3-0.3-0.4-0.4-0.7c1-0.3,0.3-1.6-0.2-1.9c0.1-0.1,0.3-0.1,0.2-0.4c-0.4-0.9-0.3-2.4-0.9-3.1c-0.1-0.5-0.1-1-0.7-0.9
	c-0.2,0.5-0.1,0.7,0.1,1c0.2,0.4,0.3,0.6,0.4,0.8c0.3,0.7,0.4,1.4,0.7,2c-0.2,0.2-0.8,0.1-0.9,0.4c0.1,0.7,0.8,0.8,0.9,1.5
	c-0.4-0.1-0.5,0.2-0.8,0.2c-0.2-0.2-0.3-0.4-0.2-0.8C28.4,18.1,28,18,28,17.6c-0.2,0-0.3,0-0.4-0.1c0.1-0.4-0.3-0.6-0.4-0.9
	c-0.3-0.8-0.3-1.8-1-2.2c-0.2,0.2-0.3,0.4-0.6,0.5c0.7,0.9,0.7,2.4,1.8,2.8c-0.5,1.2,0.6,1.9,1.4,2.2c-0.2,0.3,0,0.8,0.1,1
	c0.7,0,0.8-0.5,1.5-0.4c-0.1,0.3,0.1,0.4,0.1,0.7C30.1,20.5,29.5,21.4,29.3,21.4z"/>
<path fill-rule="evenodd" clip-rule="evenodd" d="M32.7,15.3c0.9,0.6,1.3,1.5,2.5,1.8c-0.2-0.5-0.7-0.7-1-1c-0.4-0.4-0.8-1-1.2-1.4
	c-0.4-0.4-0.4-1.1-0.9-1.4C31.4,14.2,32.6,14.5,32.7,15.3z"/>
<path fill-rule="evenodd" clip-rule="evenodd" d="M27.7,15.3c0.2,0.7,0.3,1.5,1,1.6c0.1-0.5-0.2-0.7-0.3-1c-0.4-0.9-0.5-2.2-1.3-2.6
	c-0.1,0-0.1,0-0.1,0C26.8,14.1,27.3,14.9,27.7,15.3z"/>
<path fill-rule="evenodd" clip-rule="evenodd" d="M12.5,14.9c-0.2-0.2-0.4-0.3-0.7-0.4c-0.2-0.5-0.7-1-1.3-0.8
	c0.3,1.1,1.6,1.2,2.1,2.1c0.6,0,1.1,0.2,1.6,0.4c0.1,0.3,0.6,0.7,1,0.5c0.1-0.2-0.1-0.6-0.2-0.7C14,15.9,13.7,15,12.5,14.9z"/>
<path fill-rule="evenodd" clip-rule="evenodd" d="M38.1,13.8c-0.6,0-0.5,0.8-0.7,1.5c-0.2-0.6-0.7-1.1-1.4-0.8
	c0,0.3-0.2,0.5-0.2,0.7c0.3,0.5,1.1,1.2,1.9,0.7c0-0.2-0.1-0.2-0.1-0.4c0.3,0.3,0.8,0.2,1.3,0.1c0.1,0.2,0.2,0.4,0.4,0.4
	c0.7,0,1.4-1.2,0.6-1.6c-0.4,0.1-0.7,0.3-0.8,0.7C38.7,14.7,38.7,13.8,38.1,13.8z"/>
<path fill-rule="evenodd" clip-rule="evenodd" d="M57.9,14.9c-0.4,1.4-1.9,1.8-2,3.4c0.6,0.1,0.7-0.5,0.8-0.9
	c0.4-1.1,1.1-1.7,1.6-2.5c0.5-0.2,1.1-0.6,1.1-1.1C58.8,14,58.6,14.7,57.9,14.9z"/>
<path fill-rule="evenodd" clip-rule="evenodd" d="M55,14c-1.3,1-1.9,2.7-2.8,4.2c-0.6,0.2-0.7,0.8-0.7,1.4c0.4,0.1,0.5-0.4,0.6-0.7
	c0.5-1,1.1-1.9,1.6-2.8c0.6-0.6,1.1-1.3,1.5-2.1C55.2,14,55.1,14,55,14z"/>
<path fill-rule="evenodd" clip-rule="evenodd" d="M17.7,15.6c0.1,0.3,0.5,0.4,0.8,0.5c0.1,0.5-0.1,0.8-0.2,1.2
	c-0.5-0.2-1.6-0.7-2-0.1c0,0.5,1,1.1,1.4,1.2c0.3,0.1,0.6-0.1,0.7-0.1c0.2-0.2,0.2-0.5,0.4-0.7c0.3,0.1,0.7-0.2,0.9,0
	c0,0.6-0.6,0.4-0.5,0.9c0,0.4,0.5,0.6,0.9,0.5c0.2-0.1,1-1.1,1-1.6c0-0.2-0.2-0.4-0.4-0.5c-0.5-0.2-0.8,0.3-0.9,0.2
	c0.1-0.4,0.4-0.6,0.3-1c-0.1-0.3-0.5-0.5-0.7-0.6c-0.3-0.1-0.5,0.3-0.7,0.1c0.2-0.3,0.4-0.7,0.4-1.3C18.2,13.6,17.7,14.8,17.7,15.6z
	"/>
<path fill-rule="evenodd" clip-rule="evenodd" d="M16.3,15.3c-0.1,0.4-0.5,0.5-0.5,1c0.1,0.5,0.6,0.2,1.1,0.2
	c0.2,0.1,0.2,0.4,0.6,0.3c0.2-0.2,0.6-0.2,0.4-0.7C17.4,15.8,17.1,15,16.3,15.3z"/>
<path fill-rule="evenodd" clip-rule="evenodd" d="M54.8,16.7c-0.2,0.2-0.4,0.2-0.6,0.4c-0.4,0.4-0.4,1.1-0.7,1.6
	c-0.2,0.4-0.7,0.8-0.4,1.2c0.8-0.6,1.1-1.9,1.6-2.8c0.3-0.5,0.8-1,1-1.4c0.1-0.1,0.5-0.3,0.2-0.4C55.4,15.5,55.2,16.2,54.8,16.7z"/>
<path fill-rule="evenodd" clip-rule="evenodd" d="M38.2,15.9c-0.8-0.1-0.8,0.9-0.8,1.6c-0.2-0.3-0.3-0.7-0.5-1
	c-0.3-0.2-1-0.2-1.2,0.1c-0.3,0.8,0.6,1,0.7,1.6c0.5-0.3,0.7,0.8,1.3,0.2c0.1-0.3-0.2-0.5,0-0.7c0.3,0.1,0.4,0.2,0.7,0.2
	c0.2-0.1,0.4-0.3,0.5-0.5c0,0.3,0.1,0.5,0.1,0.7c0.3,0.1,0.5,0.3,1,0.2c0.3-0.5,0.6-1.3,0.4-2c-0.8-0.5-1.1,0.3-1.4,0.6
	C38.8,16.6,38.6,16,38.2,15.9z"/>
<path fill-rule="evenodd" clip-rule="evenodd" d="M24.8,16.1c-0.1,0-0.1,0.1-0.1,0.1c0.9,0.9-0.4,3,0.7,3.6c0.4-1.2,0.5-2.8-0.1-3.8
	C25.2,16,24.9,16,24.8,16.1z"/>
<path fill-rule="evenodd" clip-rule="evenodd" d="M33.4,17c0.1-0.6-0.2-0.8-0.7-0.9c-0.4,0.4,0,0.8,0.3,1.3c0.5,0.7,1,1.7,1.7,1.6
	C34.4,18.3,33.8,17.7,33.4,17z"/>
<path fill-rule="evenodd" clip-rule="evenodd" d="M61.5,17.1c0.5-0.1,1-0.6,1-0.9C61.9,16.3,61.6,16.6,61.5,17.1z"/>
<path fill-rule="evenodd" clip-rule="evenodd" d="M31.4,19.3c0,0.4-0.2,0.8,0.1,1c0.5-0.1,0.4-1,0.6-1.4c0-0.3-0.4-0.5-0.4-0.9
	c-0.1-0.5,0.2-1.1-0.2-1.4C30.7,17.4,31.3,18.3,31.4,19.3z"/>
<path fill-rule="evenodd" clip-rule="evenodd" d="M42.4,17.6c0.2-0.2,0.9-0.7,0.5-1C42.7,17,42.3,17.1,42.4,17.6z"/>
<path fill-rule="evenodd" clip-rule="evenodd" d="M57.6,19c0.7-0.3,0.7-1.4,1.1-2.1c0-0.1,0-0.2-0.2-0.1
	C58.1,17.3,57.5,18.1,57.6,19z"/>
<path fill-rule="evenodd" clip-rule="evenodd" d="M44.1,16.9C44.1,17,44,17,44,17c-0.4,0.4-0.7,0.8-1.1,1.1
	c-0.1,0.4-0.3,0.7-0.6,0.8c0,0.8-1.8,1.6-0.9,2.3c0.4-0.6,0.8-1.1,1.1-1.6c0.1-0.2,0.2-0.4,0.3-0.6c0.5-0.7,1.5-1.2,1.7-2
	C44.4,17,44.3,16.9,44.1,16.9z"/>
<path fill-rule="evenodd" clip-rule="evenodd" d="M51.2,17c-0.3,0.4-0.6,0.7-1,1.1C50,19.4,49,20,48.7,21.2
	c-0.2,0.2-0.5,0.5-0.6,0.9c-0.1,0.3-0.2,1,0,1.1c0.7-1.5,1.5-2.8,2.3-4.3c0.6-0.4,0.9-1.1,1-1.9C51.4,17,51.3,17,51.2,17z"/>
<path fill-rule="evenodd" clip-rule="evenodd" d="M12.9,17.4c0.8,0.5,1.8,0.9,2.7,1.3c0.3,0.1,0.7,0.5,1,0.1
	c0.2-0.7-0.4-0.5-0.7-0.7c-0.2-0.1-0.2-0.2-0.4-0.2c-0.4-0.1-0.9-0.1-1.3-0.3c-0.5-0.2-0.7-0.5-1.1-0.6c0,0-0.1,0-0.1,0
	C12.9,17.2,12.9,17.3,12.9,17.4z"/>
<path fill-rule="evenodd" clip-rule="evenodd" d="M61.1,17.5c-0.1,0-0.1,0-0.1,0.1C61,17.5,61.1,17.6,61.1,17.5z"/>
<path fill-rule="evenodd" clip-rule="evenodd" d="M58.8,19.8c0.9-0.4,1.1-1.5,1.9-2c0-0.1,0.1-0.2-0.1-0.1
	C60,18.2,58.9,18.5,58.8,19.8z"/>
<path fill-rule="evenodd" clip-rule="evenodd" d="M38.8,18.5c-1.1-0.5-1.2,0.6-1.3,1.4c-0.3-0.7-0.6-1.3-1.7-1.2
	c-0.2,0.1-0.4,0.2-0.3,0.6c0,0.2,0.4,0.1,0.4,0.4c-0.1,1,0.7,1.2,1.6,1.2c0.2-0.1,0.1-0.5,0.3-0.6c0.3,0.3,0.9,0.3,1.3,0.1
	c0,0.7,0.4,0.9,0.9,1c0.8-0.3,1.1-2.4,0.1-2.5c-0.6,0-0.5,0.6-1,0.9C39.1,19.3,39.1,18.7,38.8,18.5z"/>
<path fill-rule="evenodd" clip-rule="evenodd" d="M61.4,18.5c-1.1,1.1-1.8,2.6-3,3.7c0-0.3-0.2-0.5-0.4-0.7
	c-0.5,0.1-0.9,0.2-1.1,0.6c0.3,0.4,1.1,0.4,1.5,0.1c-0.2,0.4-0.5,0.9-0.8,1.3c-0.2,0.2-0.7,0.4-0.6,0.7c0.9-0.8,1.9-1.4,2.4-2.6
	c1-0.9,1.9-1.8,2.4-3.1C61.6,18.5,61.5,18.5,61.4,18.5z"/>
<path fill-rule="evenodd" clip-rule="evenodd" d="M17.5,19.7c0.7,0.3,2.1,1.2,2.2-0.2C19.2,18.7,17.3,18,17.5,19.7z"/>
<path fill-rule="evenodd" clip-rule="evenodd" d="M41,19.3c0.1,0.2,0.5-0.2,0.3-0.4C41.2,19.1,41,19,41,19.3z"/>
<path fill-rule="evenodd" clip-rule="evenodd" d="M21.1,20.5c1.1-0.4,0.8-1.9-0.6-1.4c-0.1,0.4-0.6,1-0.2,1.5
	C20.6,20.8,20.8,20.7,21.1,20.5z"/>
<path fill-rule="evenodd" clip-rule="evenodd" d="M63.8,19.1c-0.5,0.3-0.8,0.9-1.2,1.2c-0.3,0.2-0.8,0.3-1.1,0.6
	c-0.4,0.3-0.7,0.9-1,1.3c-0.8,0.8-1.6,1.5-2.4,2.2c-0.4,0.4-0.8,0.8-1.3,1.1c-0.2-0.1-0.3-0.2-0.5-0.2c-0.4,0.3-1.2,0.6-1,1.2
	c0.9,0.6,1.5-0.5,2.1-0.9c0.5-0.3,1.1-0.5,1.5-1c0.2-0.2,0.4-0.5,0.6-0.7c1.4-1.5,2.9-3.1,4.2-4.6C63.8,19.3,64.2,19.2,63.8,19.1
	C63.9,19.1,63.9,19.1,63.8,19.1z"/>
<path fill-rule="evenodd" clip-rule="evenodd" d="M56.3,20.3c0.8,0.1,1.2-0.3,1.5-0.8C57.4,18.7,55.5,19.5,56.3,20.3z"/>
<path fill-rule="evenodd" clip-rule="evenodd" d="M33.5,19.7c0.4,0.2,0.8,1,1.1,0.7C34.5,20.1,33.8,19.2,33.5,19.7z"/>
<path fill-rule="evenodd" clip-rule="evenodd" d="M32.9,19.6c-1.1-0.1-0.5,1-0.4,1.6c-0.5,0.6,0,1.5,0.1,2.2
	c0.6-0.4,0.5-1.6,0.1-2.2C33,20.8,33.3,19.9,32.9,19.6z"/>
<path fill-rule="evenodd" clip-rule="evenodd" d="M53.8,20.5c-0.1,0.2,0,0.5-0.2,0.6c-1.5-0.5-2.3,0.5-2.2,2c0.3,0.3,0.7,0.4,1,0.3
	c0.9-0.2,0.5-2.1,1.3-2.2c-0.1,0.5,0.2,0.7,0.4,0.7c0.4,0,0.5-0.9,1-1.3c0.3-0.3,0.5-0.2,0.6-0.5C55.2,19.1,54.4,20.2,53.8,20.5z"/>
<path fill-rule="evenodd" clip-rule="evenodd" d="M17.2,20.5c-0.8,0.2-1.3-0.7-1.9-0.4c0.8,0.5,1.6,1,2.6,1.2
	C17.9,20.8,17.4,20.8,17.2,20.5z"/>
<path fill-rule="evenodd" clip-rule="evenodd" d="M57.3,21.5c0.3,0.2,0.3-0.2,0.5-0.3c0.4-0.3,0.8-0.5,0.7-1
	C57.8,19.8,56.9,20.7,57.3,21.5z"/>
<path fill-rule="evenodd" clip-rule="evenodd" d="M50.9,21.4c0.2-0.2,0.5-0.8,0.4-1C51.1,20.6,50.4,21,50.9,21.4z"/>
<path fill-rule="evenodd" clip-rule="evenodd" d="M24.8,20.9c0,0.3,0.2,0.3,0.1,0.5c0,0.3,0.1,0.7,0.1,1.1c0.1,0.5-0.1,1.1,0.3,1.3
	c0-1.1,0.1-2.4,0.1-3.4C25.1,20.4,25.1,20.7,24.8,20.9z"/>
<path fill-rule="evenodd" clip-rule="evenodd" d="M18.5,21.2c0.4,0.8,1.7,0.7,1.9-0.2C20.1,20.5,18.4,20.2,18.5,21.2z"/>
<path fill-rule="evenodd" clip-rule="evenodd" d="M56.1,22.5c0.6-0.1,0.9-0.9,0.8-1.3c-0.3-1.2-2.1,0-2,1
	C55.3,22.3,55.8,22.6,56.1,22.5z"/>
<path fill-rule="evenodd" clip-rule="evenodd" d="M20.7,21.4c0,0.3,0.2,0.4,0.1,0.6c-0.6-0.3-1.1,0.2-1.3,0.6
	c0.3,1.2,1.8,0.2,1.8-0.4c0.4-0.2,0.7-0.5,0.9-0.9C22,20.4,20.8,20.6,20.7,21.4z"/>
<path fill-rule="evenodd" clip-rule="evenodd" d="M23.7,22.2c0-0.3,0.2-0.5,0.1-0.8c-0.1,0-0.1-0.1-0.2-0.1
	C23.5,21.6,23.3,22,23.7,22.2z"/>
<path fill-rule="evenodd" clip-rule="evenodd" d="M26.2,22.7c0,0.2,0,0.3,0,0.5c0.1,0.4,0.3,0.7,0.3,1.1c0.1,1-0.2,2.6,0.7,3
	c-0.2-1.1,0.1-2,0-2.9c-0.1-1.1-0.9-1.9-0.9-3.1c-0.1,0-0.1-0.1-0.2-0.1C25.7,21.8,26.1,22.4,26.2,22.7z"/>
<path fill-rule="evenodd" clip-rule="evenodd" d="M23.2,22.9c0.3-1.9-2.2-0.9-1.3,0.4c-0.6,0-1,0.2-1,0.8c0.1,0.5,1.2,0.2,1.4,0.6
	c0,0.2-0.3,0.2-0.2,0.5c0.2,0.4,0.8,0.4,1.4,0.4c-0.2,0.3,0.2,0.2,0.3,0.4c0.1,0.1-0.3,0.4,0.1,0.2c0.3,0.2,0.3-0.2,0.7-0.1
	c0.5,1.8,2.1,2.7,2.9,4.2c1.2,0.7,1.9,2.1,2.8,3.1c0.3,0.3,0.6,0.5,0.9,0.7c0.3,0.3,0.5,0.7,0.9,0.6c0.3-0.4-0.4-0.4-0.3-0.9
	c-0.5-0.3-0.8-0.9-1-1.6c-0.6-0.5-1.2-1.2-1.8-1.8c-0.2,0-0.3-0.1-0.5-0.1c-0.1-0.2-0.3-0.3-0.4-0.5c-0.2-1-1.1-1.5-1.6-2.2
	c-0.5-0.6-0.9-1.3-1.5-1.8c0.3-0.3-0.2-0.5-0.1-0.7c0-0.2,0.4-0.4,0.2-0.7c-0.2-0.2-0.7-0.4-1-0.2c0.1-0.5-0.2-0.9-0.6-1
	c-0.4,0.1-0.5,0.4-0.6,0.7c-0.3,0-0.6-0.2-0.6-0.5C22.5,23.3,22.9,23.1,23.2,22.9z"/>
<path fill-rule="evenodd" clip-rule="evenodd" d="M16.6,22.1c0.9,0.1,1.4,0.9,2.3,0.8c0-0.6-0.7-0.5-1.2-0.6
	c-0.3-0.3-0.7-0.4-1.2-0.5C16.5,21.9,16.6,22.1,16.6,22.1z"/>
<path fill-rule="evenodd" clip-rule="evenodd" d="M32.3,22.3c-0.8-1-1.6,0.7-0.7,1.3c0.2,0,0.5,0.1,0.7-0.1
	C32.4,23.2,32.2,22.7,32.3,22.3z"/>
<path fill-rule="evenodd" clip-rule="evenodd" d="M33.6,24c0.1,0.4,0.3,0.6,0.3,1c0,0.3-0.3,0.7,0.1,0.9c0.4-0.1,0.4-0.8,0.4-1.1
	c0.1-1.2-0.4-2-0.6-2.7c0-0.1-0.1-0.1-0.1-0.1C33.7,22.7,33.5,23.3,33.6,24z"/>
<path fill-rule="evenodd" clip-rule="evenodd" d="M54.4,22.4c-0.5,0.2-1,0.4-1,0.9c0,0.4,0.5,0.8,0.8,0.8c0.5,0,0.7-0.7,0.8-1.3
	C54.7,22.8,54.7,22.5,54.4,22.4z"/>
<path fill-rule="evenodd" clip-rule="evenodd" d="M28.6,23.2c-0.4-0.1-0.8-0.6-1.3-0.4c0.1,0.7,1,1.3,1.6,0.7c0.4,0.2,0.4,0.8,1,0.7
	c0.2-0.1,0.3-0.6,0.4-0.4c0,0.6,0.1,1,0.4,1.3c0.5-0.1,0.7-0.1,1.1-0.1c0.3-1-0.7-1.7-1.6-1.5C30.2,22.7,28.8,22.2,28.6,23.2z"/>
<path fill-rule="evenodd" clip-rule="evenodd" d="M55.3,23.2c-0.1,0.2-0.3,0.3-0.3,0.6c0.6,0.2,1.7-0.1,1.9-0.7
	C56.5,22.4,55.9,23.3,55.3,23.2z"/>
<path fill-rule="evenodd" clip-rule="evenodd" d="M49.7,24.7c1,0.1,1.9-0.3,1.9-1.4C50.8,22.3,49.3,23.5,49.7,24.7z"/>
<path fill-rule="evenodd" clip-rule="evenodd" d="M19,23.9c-1.4,0.3-2.4-1.5-3.1-0.7c0.1,0.9,1.1,0.9,1.9,1.1c0.5,0.2,1,0.6,1.6,0.7
	c0.3,0.1,0.7,0.1,1,0.1c0.3,0,0.7,0.1,0.9-0.2C20.7,24.5,19.7,24.4,19,23.9z"/>
<path fill-rule="evenodd" clip-rule="evenodd" d="M51.4,24.8c0,0.3,0.3,0.8,0.7,0.8c0.8,0.1,1.7-2,0.4-1.8
	C52.2,23.9,51.5,24.3,51.4,24.8z"/>
<path fill-rule="evenodd" clip-rule="evenodd" d="M33,26.2c0,0.6,0.3,0.9,0.4,1.3c0.3,0,0.5-0.1,0.7-0.2c0.1-0.9-0.3-1.4-1-1.6
	c0.2-0.8,0-1.7-0.6-1.9c-0.6,0.4-0.6,1.4-0.2,1.8c-0.2-0.2-0.8-0.4-1,0c-0.4-0.4-0.8-1-1.5-0.9c-0.2,0.5,0,1.1,0.4,1.3
	c0.9-0.1,1.1,0.9,1.7,1c0.3,0,0.5-0.2,0.9-0.2c0.3-0.5-0.2-0.8-0.4-1.1C32.7,26,32.9,26,33,26.2z"/>
<path fill-rule="evenodd" clip-rule="evenodd" d="M35.3,26.8c0,0.2-0.2,0.4-0.2,0.5c-0.1,0.7,0.2,1.1,0.6,1.3c0.4-1.1-0.8-2.1,0-2.9
	c-0.3-0.4-0.2-1.5-0.5-1.6C34.5,24.7,35.4,25.7,35.3,26.8z"/>
<path fill-rule="evenodd" clip-rule="evenodd" d="M56.4,24.6c0.2,0,0.3-0.1,0.4-0.2C56.6,24.3,56.5,24.5,56.4,24.6z"/>
<path fill-rule="evenodd" clip-rule="evenodd" d="M53.3,25c-0.1,0.3-0.2,0.7-0.1,1c1,0.3,1.6-0.4,1.9-1C54.9,24,53.8,24.7,53.3,25z"
	/>
<path fill-rule="evenodd" clip-rule="evenodd" d="M28.5,25c-0.1-0.2-0.4-0.3-0.7-0.2c0.1,0.8,0.9,0.1,1.5,0.5c0-0.1,0.1-0.1,0.1-0.1
	C29.5,24.6,28.6,24.6,28.5,25z"/>
<path fill-rule="evenodd" clip-rule="evenodd" d="M47.2,26.5c-1.2-0.4-1.9,1.3-1.2,2.2c0.3,0.1,0.5,0.1,0.9,0.1
	c0.4-0.4,0.4-1.3,0.7-1.9c0.2,0.2,0.4,0.4,0.9,0.3c0.6-0.5,0.8-1.3,1.3-2C48.7,24.3,47.3,25.3,47.2,26.5z"/>
<path fill-rule="evenodd" clip-rule="evenodd" d="M21.2,25.9c-0.5,0-0.9-0.2-1.2-0.2c-0.2,0.1-0.4,0.2-0.7,0.2
	c-0.7-0.3-1.5-0.5-2.2-0.9c-0.1,0-0.2,0-0.2,0.1c0,0.1,0,0.1,0,0.2c0.4,0.2,0.6,0.3,1,0.5c0.1,0.1,0.3,0.2,0.4,0.2
	c0.2,0,0.4-0.1,0.5,0c0.2,0.1,0.3,0.3,0.5,0.3c0.3,0,0.7-0.1,1-0.1c0.9,0,1.8,0.4,2.7,0C23,25.7,21.9,26,21.2,25.9z"/>
<path fill-rule="evenodd" clip-rule="evenodd" d="M49.4,26.5c-0.2,0.3-0.3,0.6-0.3,0.9c1,1,2.4-0.3,2.6-1.3
	C51.2,25.1,49.9,25.7,49.4,26.5z"/>
<path fill-rule="evenodd" clip-rule="evenodd" d="M51,27.8c0.7,0.7,1.5-0.2,2.3-0.2c0.2-0.4,0-0.7,0.1-1.2
	C52.3,26,51.2,26.8,51,27.8z"/>
<path fill-rule="evenodd" clip-rule="evenodd" d="M54.5,27.8c-0.2,0.4-1,0.4-1.2,0.8c1,0.3,1.8-0.3,2.5-0.6c1-0.5,2.1-1,2.8-1.8
	C56.8,26.3,56.3,27.8,54.5,27.8z"/>
<path fill-rule="evenodd" clip-rule="evenodd" d="M28.1,26.6c0.7,0.1,1.1,0.4,1.8,0.5c0.3-1.1-1.2-0.6-1.6-0.8
	C28.3,26.5,28.1,26.4,28.1,26.6z"/>
<path fill-rule="evenodd" clip-rule="evenodd" d="M30.9,27.7c0,0.5,0.7,0.9,1.5,0.9c0.3,0.5,1.1,0.7,1.6,0.2
	c0.1,0.4,0.5,0.4,0.8,0.5c0.4-0.5,0.2-1.8-0.7-1.7c-0.2,0.1-0.2,0.4-0.3,0.5c-0.4-0.3-0.6-0.8-1.3-0.8c-0.3,0-0.3,0.3-0.4,0.4
	C31.8,27.2,30.8,26.8,30.9,27.7z"/>
<path fill-rule="evenodd" clip-rule="evenodd" d="M36.4,27.7c0.1,0,0.1,0,0.2,0c0.1-0.1,0.1-0.2-0.1-0.2
	C36.5,27.6,36.4,27.6,36.4,27.7z"/>
<path fill-rule="evenodd" clip-rule="evenodd" d="M47,29.3c-0.3-0.4-0.9,0.1-1,0.1c0-0.4-0.3-0.6-0.4-1c-1.6-0.2-1.2,2,0,1.9
	c-0.1,0.4,0.1,0.6,0.2,0.7c0.6,0.1,0.7-0.2,1-0.4c0-0.4-0.1-0.6,0-1c0.4,0.5,1.7,0.3,2.1-0.1c0.1-0.7,0.7-0.8,0.6-1.6
	C48.4,27.5,47.4,28.5,47,29.3z"/>
<path fill-rule="evenodd" clip-rule="evenodd" d="M29.2,28.2c0.2,0.4,1.2,0.6,1.6,0.4C30.7,27.8,29.9,28.3,29.2,28.2z"/>
<path fill-rule="evenodd" clip-rule="evenodd" d="M36.5,29.1c0.5-0.1,0.1-0.8,0-1C36.4,28.4,36.3,28.9,36.5,29.1z"/>
<path fill-rule="evenodd" clip-rule="evenodd" d="M50.3,28.2c-0.4,0.1-1.3,1.4-1.3,1.5c0,0.3,0.2,0.6,0.2,0.8
	c1.2-0.1,2.6-1.1,1.8-2.2C50.8,28.3,50.6,28.2,50.3,28.2z"/>
<path fill-rule="evenodd" clip-rule="evenodd" d="M59.8,29.9c-0.6,0.5-1.6,0.9-1.9,1.8c0.7,0,1.1-0.5,1.5-0.9
	c0.9-0.9,1.8-1.5,2.6-2.3c0.1,0,0.1-0.1-0.1-0.1C61.2,28.8,60.5,29.3,59.8,29.9z"/>
<path fill-rule="evenodd" clip-rule="evenodd" d="M33.7,29.4c-0.1,0-0.2,0.2-0.4,0.2c-0.5-0.4-1.5-0.6-1.5,0.4
	c-0.6,0-1.1-0.1-1.6-0.1c0,0.2,0.3,0.2,0.5,0.2c0,0.5,0.6,0.4,1.1,0.4c0.2,0,0.2-0.3,0.4-0.4c0.3,0.5,1.5-0.3,1.3,0.7
	c-0.5-0.3-1.3-0.3-1.4,0.2c-0.1,0.5,0.6,0.6,0.9,1c0.6-0.1,0.8,0,1.2,0.3c0,0.5,0.2,0.9,0.6,1c0.1-0.3,0.6-0.2,0.8-0.4
	c0.1-0.9-0.7-1.4-1.4-1.1c0-0.3-0.5-0.5-0.3-0.7c0.5,0.3,1.2,0.1,1.3-0.4c0.1,0.4,0.5,0.4,0.7,0.6c0.3-0.7,0.1-1.6-0.2-2.1
	c-0.7-0.1-0.7,0.7-0.7,1C34.7,29.9,34.3,29.6,33.7,29.4z"/>
<path fill-rule="evenodd" clip-rule="evenodd" d="M54.4,30.6c-0.7,0.5-1.6,0.9-1.9,1.8c0.7-0.1,1-0.7,1.5-1c0.9-0.8,1.9-1.3,2.9-2
	c0-0.1-0.1-0.2-0.1-0.2C55.9,29.5,55.1,30.1,54.4,30.6z"/>
<path fill-rule="evenodd" clip-rule="evenodd" d="M52.7,29.9c-0.6,0.2-1.4,0.4-1.3,1c0.9,0.1,1.5-0.5,2.2-0.8
	c0.4-0.2,0.8-0.4,1.3-0.6c0.1-0.1,0.1-0.2-0.1-0.2C54.1,29.5,53.4,29.6,52.7,29.9z"/>
<path fill-rule="evenodd" clip-rule="evenodd" d="M56.5,30.5c-0.7,0.6-1.2,0.9-1.4,1.6c1.1-0.3,1.8-1.1,2.5-1.7
	c0.2-0.2,0.6-0.5,0.7-0.8C57.5,29.4,57.1,30,56.5,30.5z"/>
<path fill-rule="evenodd" clip-rule="evenodd" d="M36.3,30c0.3,0.1,0.3-0.4,0.1-0.4C36.4,29.7,36.3,29.8,36.3,30z"/>
<path fill-rule="evenodd" clip-rule="evenodd" d="M17.1,33.3c-0.6-0.7-1.2-1.2-2-1.7c-0.9-0.5-2-0.8-2.6-1.4c-0.4,0-0.9-0.1-0.9,0.3
	c0.2,0.4,0.7,0.4,1.1,0.5c0.6,0.7,1.7,0.9,2.5,1.4c0.7,0.5,1.3,1.5,2.3,1.3C17.5,33.5,17.2,33.5,17.1,33.3z"/>
<path fill-rule="evenodd" clip-rule="evenodd" d="M47.9,30.4c-0.4,0.4-1.3,0.8-1,1.6c0.5,0.2,0.8-0.3,1.4-0.1
	c0.4-0.2,0.9-0.5,0.9-1.1C48.8,30.7,48.4,30.5,47.9,30.4z"/>
<path fill-rule="evenodd" clip-rule="evenodd" d="M20.2,34.1c-0.3-0.3-0.4-0.7-0.7-1c-0.2-0.2-0.4-0.3-0.6-0.4
	c-0.2-0.2-0.3-0.5-0.5-0.6c-0.4-0.3-1-0.5-1.4-0.7c-0.5-0.3-0.9-0.6-1.5-0.7c-0.1,0-0.2,0-0.2,0.1c0,0.1,0,0.2,0,0.2
	c1.6,0.8,2.9,1.8,4.2,2.9c0.2,0.2,0.4,0.6,0.7,1c0.2,0.3,0.5,0.9,1,0.3C21.2,34.5,20.5,34.4,20.2,34.1z"/>
<path fill-rule="evenodd" clip-rule="evenodd" d="M13.4,32.7c-0.4-0.5-1.1-0.9-1.9-1.3c-0.9-0.4-2-0.8-2.7-0.7
	c-0.1,0-0.1,0.1-0.2,0.1c0.4,0.7,1.2,0.4,1.8,0.7c1.2,0.5,1.9,1.5,3.1,1.9c0.3,0.1,0.9,0.4,1-0.1C14.2,33.1,13.9,32.8,13.4,32.7z"/>
<path fill-rule="evenodd" clip-rule="evenodd" d="M59.3,32.4c1.3,0,2.4-0.3,3-1C61.1,30.8,59.6,31.7,59.3,32.4z"/>
<path fill-rule="evenodd" clip-rule="evenodd" d="M49.2,33c0.8,0.1,1.4-0.6,2-1C50.5,31.4,49.3,32.1,49.2,33z"/>
<path fill-rule="evenodd" clip-rule="evenodd" d="M7,31.9c-0.3,0-0.7-0.2-0.7,0.1c0.1,0.4,0.8,0.3,1.2,0.4c1,0.2,2.4,0.8,3.4,0.7
	C10.2,32.3,8.3,32,7,31.9z"/>
<path fill-rule="evenodd" clip-rule="evenodd" d="M36.9,32.8c0-0.6-0.4-0.8-0.9-1c-0.6,0.3-0.1,1.1,0,1.6
	C36.2,33.1,36.7,33.1,36.9,32.8z"/>
<path fill-rule="evenodd" clip-rule="evenodd" d="M57.9,31.9c-0.6,0.4-1.8,0.2-1.9,0.9c-0.1,0.4,0.3,0.8,0.7,0.8
	c0.3,0,1.2-1,1.5-1.3C58.1,32.2,58.1,32,57.9,31.9z"/>
<path fill-rule="evenodd" clip-rule="evenodd" d="M31.9,32.4c-0.1-0.3-0.4-0.4-0.8-0.3C31.2,32.3,31.7,32.6,31.9,32.4z"/>
<path fill-rule="evenodd" clip-rule="evenodd" d="M59.7,33.7c0.9,0.2,2.1-0.4,2.3-1.3C61.1,32.6,60.2,32.9,59.7,33.7z"/>
<path fill-rule="evenodd" clip-rule="evenodd" d="M3.9,32.5c-0.5,0.2-1.1,0.7-1.7,1c-0.7,0.3-1.5,0.6-1.5,1.2c0.6,0.3,1-0.3,1.4-0.6
	c0.4-0.3,1-0.6,1.5-0.7c0.6-0.2,1.3,0,1.9-0.4C5.2,32.4,4.2,32.4,3.9,32.5z"/>
<path fill-rule="evenodd" clip-rule="evenodd" d="M32.8,33.2c0.5,0.3,0.8,0.7,1.3,1c0-0.1,0.2-0.3,0.3-0.6
	C34.2,33,33,31.8,32.8,33.2z"/>
<path fill-rule="evenodd" clip-rule="evenodd" d="M53.7,33.5c-0.2,0-0.2-0.2-0.4-0.2c-0.8,0.1-0.9,0.9-1.5,1.2
	c-0.8-0.8-1.7,0.2-1.9,0.9c0.2,0,0.1,0.5,0.2,0.6c0.1,0,0.2,0,0.2,0.1c0.8-0.1,1-0.8,1.6-1.1c0.5,1.3,1.8-0.3,1.9-1.1
	c0.9,0.5,1.7-0.2,2.1-0.9C55.3,32,54.1,33.1,53.7,33.5z"/>
<path fill-rule="evenodd" clip-rule="evenodd" d="M51.5,33.1c0.2,0.1,0.5-0.2,0.3-0.3C51.8,32.9,51.5,32.9,51.5,33.1z"/>
<path fill-rule="evenodd" clip-rule="evenodd" d="M58,33.5c0.2,0.7,1.9,0.5,1.5-0.4C59,32.9,58.1,32.9,58,33.5z"/>
<path fill-rule="evenodd" clip-rule="evenodd" d="M7.8,33.6c0-0.2-0.2-0.3-0.3-0.4c-1.3-0.2-1,1-0.2,1.2c0.5-0.5,0.9-0.3,1.1,0.3
	c0.8,0.1,1.1-0.4,1.6-0.6c0.1,0.6,0.8,1,1.5,0.7c0.2-0.1,0.2-0.4,0.4-0.5c0.2,0.8,1.1,1.1,1.9,1c0.2-0.1,0.1-0.5,0.4-0.5
	c0,1.1,1.4,0.9,1.9,0.4c-0.2-0.3-0.5-0.5-0.4-1c-0.5-0.3-1.4-0.2-1.6,0.3c-0.2-0.7-1.2-1-1.9-0.7c-0.1,0.1-0.1,0.3-0.2,0.4
	c-0.3-0.6-1.1-1-1.7-0.5C10.1,32.7,8,32.9,7.8,33.6z"/>
<path fill-rule="evenodd" clip-rule="evenodd" d="M23.1,35.6c-0.4-0.9-1.1-3-2.2-2.2c0.1,0.6,0.8,0.9,1,1.4c0.3,0.5,0.4,0.7,0.7,1.1
	c0.2,0.2,0.3,0.6,0.7,0.4C23.6,36.2,23.3,35.9,23.1,35.6z"/>
<path fill-rule="evenodd" clip-rule="evenodd" d="M37.3,34.4c0-0.3-0.2-0.8-0.5-0.9c0.1,0-0.6,0.2-0.5,0.1c-0.3,0.2-0.3,0.6-0.3,1.1
	C36.4,35.3,37.2,34.9,37.3,34.4z"/>
<path fill-rule="evenodd" clip-rule="evenodd" d="M4.1,34.5c0.2,0.3,0.2,0.7,0.4,0.9c0.6,0.1,1,0.1,1.5-0.1c0.3-0.4,0.5-0.9,0.4-1.5
	C5.7,33.3,4.4,33.9,4.1,34.5z"/>
<path fill-rule="evenodd" clip-rule="evenodd" d="M33,34.1c-0.1-0.3-0.2-0.5-0.6-0.5C32.2,34,32.5,34.2,33,34.1z"/>
<path fill-rule="evenodd" clip-rule="evenodd" d="M55.7,34c-0.1,0.2-0.3,0.2-0.3,0.4c-0.1,0.5,0.5,0.5,0.9,0.7
	c-0.5,0.1-0.9,0.7-0.4,1.1c0.8,0.1,1.4-0.7,1-1.3c0.3-0.1,0.5-0.3,0.7-0.5c0-0.2,0-0.5,0-0.7C56.9,33.4,56.6,34.1,55.7,34z"/>
<path fill-rule="evenodd" clip-rule="evenodd" d="M35,35.6c1.3,0.2,0.6-1.9-0.2-1.6C34,34.3,34.6,35.5,35,35.6z"/>
<path fill-rule="evenodd" clip-rule="evenodd" d="M16.2,34.8c-0.1,0.4,0.5,0.9,0.6,1.3c-0.2,0.4-0.7,0.7-0.4,1.3
	c0.5,0,0.8,0.1,1.3,0.1c0.3-0.2,0.4-0.4,0.4-0.7c0-0.6-0.5-0.8-0.7-1.1c0.4,0.1,0.4-0.2,0.6-0.3C18.3,34.2,16.3,34,16.2,34.8z"/>
<path fill-rule="evenodd" clip-rule="evenodd" d="M59,34.7c-0.3-0.1-0.7,0-1,0.1c0,0.3-0.4,0.6-0.1,0.8C58.3,35.4,58.9,35.3,59,34.7
	z"/>
<path fill-rule="evenodd" clip-rule="evenodd" d="M59.2,34.8c-0.2,0.1-0.3,0.3-0.3,0.6c0.8,0.3,1.9-0.2,2.1-0.9
	C60.4,34.4,60,34.9,59.2,34.8z"/>
<path fill-rule="evenodd" clip-rule="evenodd" d="M6.5,35.6c0.6,0.4,1.7-0.3,1-1C6.8,34.5,6.2,34.9,6.5,35.6z"/>
<path fill-rule="evenodd" clip-rule="evenodd" d="M52.9,36.1c1.1,0.2,2.1-0.2,2.2-1.1C54.5,34.2,52.5,35,52.9,36.1z"/>
<path fill-rule="evenodd" clip-rule="evenodd" d="M8.1,36.4c0.1,0,0.1,0,0.1,0.1c0.7-0.2,1.2-0.5,1.2-1.3
	C8.6,34.4,7.5,35.6,8.1,36.4z"/>
<path fill-rule="evenodd" clip-rule="evenodd" d="M34.4,35.6c0.1-0.1,0-0.5-0.1-0.7C33.3,34.5,33.6,36.1,34.4,35.6z"/>
<path fill-rule="evenodd" clip-rule="evenodd" d="M18.3,35c-0.1,0.3,0,0.8,0.1,1.1c0.2,0.1,0.4,0.2,0.6,0.3
	c-0.6,0.1-0.8,0.9-0.2,1.2c0.6,0,1.1,0,1.3-0.3c0.2-0.3,0-0.6,0.2-0.7c0.1,0,0.3,0,0.3,0.1c-0.2,0.2-0.4,0.4-0.3,0.8
	c0.4,0.3,1.2,0.1,1.4-0.2c0.1,0.2,0.2,0.4,0.4,0.4c0.6-0.3,0.5-1,0.1-1.4c-0.7-0.2-0.8,0.6-1.3,0.3c0.1-0.3,0.5-0.2,0.5-0.5
	c-0.1-0.6-1.1-0.9-1.6-0.5C19.8,35,18.8,34.9,18.3,35z"/>
<path fill-rule="evenodd" clip-rule="evenodd" d="M10.3,35.1c-0.2,0.1-0.8,0.7-0.7,0.8c0,0.6,1,0.5,1.6,0.4c0.4-0.1,0.8,0.1,0.7-0.4
	C11.5,35.6,11,34.9,10.3,35.1z"/>
<path fill-rule="evenodd" clip-rule="evenodd" d="M49.4,36.2c0.2-0.3,0.4-0.3,0.4-0.5c0-0.3-0.2-0.7-0.9-0.6
	c-0.3,0.7-1.2,0.7-1.6,1.3c0.3,0.1,0.4,0.5,0.7,0.6C48.5,37,49.1,36.5,49.4,36.2z"/>
<path fill-rule="evenodd" clip-rule="evenodd" d="M1.2,35.5C0.7,35.6,0,35.5,0,36c0.9,0.5,2.3-0.2,3.4-0.1c0.5,0.1,1,0.5,1.3,0
	C3.9,35.4,2.4,35.3,1.2,35.5z"/>
<path fill-rule="evenodd" clip-rule="evenodd" d="M12.2,35.6c-0.1,0.7,0.2,1,0.3,1.6c1.2,0.5,1.7-1,1-1.6
	C12.9,35.6,12.5,35.1,12.2,35.6z"/>
<path fill-rule="evenodd" clip-rule="evenodd" d="M23.8,35.7c0.4,0.6,0.8,1.2,1.2,1.9c0.1,0.3,0.2,0.8,0.7,0.7
	c-0.6-1-0.9-2.1-1.6-2.9c-0.1,0-0.1,0-0.2,0C23.8,35.5,23.8,35.6,23.8,35.7z"/>
<path fill-rule="evenodd" clip-rule="evenodd" d="M50.2,37.2c-0.5-1-2.1-0.4-2.2,0.7c0.4,0.3,0.7,0.5,1.1,0.5c0.6,0,1.1-0.7,1.6-0.9
	c0.1-0.2-0.2-0.3,0-0.3c0.7-0.3,2.1,0.1,2-1C51.7,35.3,50.1,36.2,50.2,37.2z"/>
<path fill-rule="evenodd" clip-rule="evenodd" d="M14.3,37.1c0.5,0.2,1.3,0.1,1.7,0C16.6,35.6,13.4,35.4,14.3,37.1z"/>
<path fill-rule="evenodd" clip-rule="evenodd" d="M57,36.9c-0.3,0.1-0.6-0.1-0.7,0.3c1.4,0,3.1-0.2,3.7-1.2
	C58.7,36.1,58,36.6,57,36.9z"/>
<path fill-rule="evenodd" clip-rule="evenodd" d="M33.9,36.2c0.2,0.3,1.1,0.6,1.4,0.3C34.7,36.7,34.2,35.9,33.9,36.2z"/>
<path fill-rule="evenodd" clip-rule="evenodd" d="M53.3,37.2c0.4,0.2,0.7-0.1,1-0.2c0.5,0,1,0,0.9-0.6
	C54.5,36.3,53.4,36.4,53.3,37.2z"/>
<path fill-rule="evenodd" clip-rule="evenodd" d="M44.6,37.9c0.5,0.1,1,0.4,1.3,0.2c0.4-0.3,1.2-1.1,1.3-1.6
	C45.9,36.2,44.6,36.6,44.6,37.9z"/>
<path fill-rule="evenodd" clip-rule="evenodd" d="M4,37.1c-0.1,0-0.1,0.1-0.1,0.1c0.1,0,0.1,0.1,0.1,0.1c1.9,0.5,4.3,0.6,6.3,0.4
	c0.9,0,1.6,0.1,2-0.4C9.5,37.9,6.5,37.4,4,37.1z"/>
<path fill-rule="evenodd" clip-rule="evenodd" d="M23.9,38.6c0.3-0.5-0.2-1.5-1-1.4c-0.1,0.3-0.3,0.5-0.4,0.8c0,0.2,0.3,0.1,0.3,0.4
	c-0.2,0.1-0.4,0.2-0.5,0.4c-0.1,0.9,1.4,1.2,1.8,0.5C24.1,39,24,38.8,23.9,38.6z"/>
<path fill-rule="evenodd" clip-rule="evenodd" d="M52,37.3c-0.4-0.1-0.8,0.2-1.2,0.4c-0.1,0.4,0,0.6,0.1,0.8
	c0.9,0.3,1.6-0.2,1.8-0.9C52.5,37.7,52.3,37.3,52,37.3z"/>
<path fill-rule="evenodd" clip-rule="evenodd" d="M43.8,37.4c-0.5-0.1-0.4,0.3-0.7,0.6c-0.2,0.2-0.6,0.3-0.7,0.4
	c-0.4,0.4-0.5,1.2,0.1,1.5c0.7-0.5,1.1-1.2,1.7-1.8C44.1,37.9,44,37.6,43.8,37.4z"/>
<path fill-rule="evenodd" clip-rule="evenodd" d="M55.3,38c-0.7,0.1-1.5-0.2-1.7,0.3c0.6,0.2,1.1,0,1.8,0c0.9,0.6,2.2,0,2.7-0.6
	C57.2,37.8,55.9,37.4,55.3,38z"/>
<path fill-rule="evenodd" clip-rule="evenodd" d="M47.5,37.8c-1.2-0.1-1.7,0.3-2.1,1c-0.9-0.2-1.8,0.2-1.8,1c0.5,0.2,1.1,0.2,1.6,0
	c0.3-0.2,0.3-0.6,0.6-0.7c1,0.5,1.9-0.2,2.4-0.8C47.9,38.2,47.7,38,47.5,37.8z"/>
<path fill-rule="evenodd" clip-rule="evenodd" d="M19.5,38c-0.6-0.3-0.8,0.3-1,0.6c-0.7-0.4-1.2,0.2-1.6,0.4
	c-0.7,0.4-1.6,0.4-2.3,0.7c-0.4,0.6-1.5,0.5-1.9,1c0.3,1,1.3,0.6,1.9,0.3c0.3-0.1,0.7-0.1,0.9-0.2c0.6-0.2,0.8-0.7,1.1-1
	c0.7-0.6,1.7-0.5,2.1-1.1c0.2,0.2,0.8,0.1,0.8,0.5c0.7,0.3,1.6-0.1,2.2,0.2c-0.2,0.3-0.3,0.6,0,0.8c0.5,0,0.7-0.3,0.7-0.7
	c-0.5-0.2-0.1-0.9-0.4-1.3c-0.6-0.1-1.7,0-2.3,0.2C19.6,38.1,19.7,37.9,19.5,38z"/>
<path fill-rule="evenodd" clip-rule="evenodd" d="M13.4,38.6C11.7,39.2,9.7,39,8,39.1c-1,0-2-0.4-2.9-0.1c1.8,0.6,4.9,0.7,6.9,0.4
	c0.9-0.1,1.6-0.3,2.2-0.5c0.3-0.1,0.8-0.4,0.7-0.6C14.5,38.1,14,38.5,13.4,38.6z"/>
<path fill-rule="evenodd" clip-rule="evenodd" d="M26.2,40.4c0.7-0.1,0.8,0.4,1.5,0.2c0.8,0.4,1.6,0.5,2.3,0.9
	c0.7,0.4,1.2,1,1.8,1.5c0,0.1,0,0.2,0.1,0.3c0.8,0.6,1.6,1.4,1.9,2.5c0.1,0.4,0,0.8,0.3,1.2c0.4-0.2,0-0.5,0-0.8
	c0.1-0.7-0.3-1.1-0.2-1.9c-1.9-2.1-4.2-3.9-7.4-4.9c-0.2-0.2-0.2,0-0.4,0c-0.3-0.6-0.7-1.3-1.6-1c-0.2,0.4,0.2,0.5,0.2,0.9
	c-0.2,0.2-0.2,0.4-0.1,0.8c0.2,0.2,0.5,0.3,1,0.2c0.2-0.2,0.3-0.8,0.5-0.7C25.6,39.9,26,40.3,26.2,40.4z"/>
<path fill-rule="evenodd" clip-rule="evenodd" d="M49.4,39.2c0.4,0.1,0.2,0.7-0.1,0.7c0.4,0.2,1.1,0.6,1.6,0.2
	c0.1-0.4-0.1-0.6,0-0.9C50.5,39.1,49.7,38.7,49.4,39.2z"/>
<path fill-rule="evenodd" clip-rule="evenodd" d="M46.9,40.4c-0.3,0-0.5-0.4-0.8-0.4c-1,0-1.1,1-0.4,1.3c0.3,0.1,0.8-0.1,1,0.2
	c-0.5,0-1.4-0.4-1.5,0.2c0.7,0.4,2.1,0.3,2.5-0.2c-0.1-0.2-0.6-0.1-0.9-0.1C47.2,41.1,47,41,46.9,40.4c0.6,0.1,1,0.2,1.3,0.4
	c-0.2,0-0.3,0-0.3,0.3c0.9,0.3,2.5,0.1,2.9-0.4c-1.1-0.1-1.8,0.6-2.5,0c0.3,0,0.4-0.2,0.7-0.2c0.2-0.3-0.2-0.7,0.2-0.7
	C48.5,39.2,47.1,39.5,46.9,40.4z"/>
<path fill-rule="evenodd" clip-rule="evenodd" d="M52.6,39.6c-0.5,0-1.2-0.4-1.3,0.3c0.9,0.3,2.4,0,3.1-0.4
	C53.8,39.3,53.2,39.6,52.6,39.6z"/>
<path fill-rule="evenodd" clip-rule="evenodd" d="M42.6,40.8c0.4,0.5,1,0.7,1.8,0.8c0-0.2,0.3-0.2,0.2-0.4
	C44,40.9,43,39.4,42.6,40.8z"/>
<path fill-rule="evenodd" clip-rule="evenodd" d="M20.6,40.3c-0.5,0.3-0.9,0.7-1.5,0.9c-0.3,0.1-0.7,0.1-1.1,0.1
	c-0.2,0-0.5,0.2-0.7,0.2c-1,0.1-1.9-0.3-3,0.1c0.2,0.4,1,0.5,1.6,0.5c0.5,0,1,0,1.5,0c0.9-0.1,2-0.3,2.6-0.5
	c0.5-0.2,1.1-0.7,1.2-1.3C20.9,40.2,20.6,40.2,20.6,40.3z"/>
<path fill-rule="evenodd" clip-rule="evenodd" d="M40.7,41.4c-0.2,0.2-0.4,0.2-0.5,0.3c-0.5,0.5-0.8,1.3-1,2c-0.2,0.6,0,1.2-0.4,1.6
	c-0.1,0.5-0.8,1.3-0.1,1.6c0.3-0.1,0.2-0.5,0.3-0.7c0.5-1.1,0.6-2.2,1.1-3c0.1-0.2,0.3-0.5,0.4-0.7c0.5-0.7,1.4-1,1.6-1.9
	C41.3,40.4,41.1,41.1,40.7,41.4z"/>
<path fill-rule="evenodd" clip-rule="evenodd" d="M23.8,41.2c-1-0.1-1.7-0.1-2.1,0.4c0.6,0.3,1.6,0.2,2.5,0.1
	c0.8-0.1,1.8-0.2,2.2-0.6C25.6,41.1,24.7,41.2,23.8,41.2z"/>
<g>
	<g>
		<path fill-rule="evenodd" clip-rule="evenodd" d="M35.6,45.6c0-0.5,0.2-1,0.1-1.5c-0.1-0.3-0.4-0.5-0.5-0.8
			c-0.2-0.5-0.2-1-0.4-1.4c-0.5-1.3-1.5-2.1-2.3-3.1c-0.3,0-0.6,0.1-0.7-0.1c0.1-0.9-0.5-1.4-1-1.9c-0.5-0.5-0.8-1-1.2-1.5
			c-0.2-0.3-0.3-0.6-0.5-0.9c-0.4-0.5-1-0.9-1.4-1.5c-0.9-1.1-1.7-2.6-2.8-3.3c-0.4-1.3-2.2-1.8-3.7-2c-1-0.1-2,0-3-0.2
			c-0.4-0.1-0.7-0.4-1-0.5c-0.7-0.3-1.3-0.3-1.9-0.5c-0.6-0.8-1.5-1.2-2.2-1.7c-0.5-0.4-0.9-0.9-1.6-1c-0.2-0.4-0.9-1.2-1.4-0.6
			c-0.2,0.8,0.5,1.4,0.8,1.9c0.1,0.2,0.2,0.5,0.3,0.7c0.4,0.5,0.9,0.8,1.3,1.3c0.1,0.1,0.2,0.3,0.4,0.4c0.2,0.1,0.4,0.2,0.6,0.3
			c0.1,0.1,0.2,0.3,0.4,0.4c0.2,0.1,0.4,0.3,0.5,0.4c0.4,0.3,0.7,0.6,1,0.7c1.2,0.7,2.7,1,4,1.7c0.6,0.3,0.9,0.8,1.6,0.8
			c0.8,0.5,1.5,1.1,2.3,1.5c0.8,0.5,1.8,0.8,2.5,1.3c0.4,0.3,0.7,0.7,1.1,1.1c0.4,0.4,0.9,0.6,1.3,1c1,0.9,1.9,2.3,3,3
			c0.3,0.4,0.5,1,1,1.1c0.3,0,0.1-0.4,0.4-0.4c0.7,0.5,1.3,1.2,1.7,2.1c0.6,1.3,0.8,2.9,1.1,4.6c0.2,0,0.2-0.3,0.4-0.4
			C35.9,46.2,35.7,46,35.6,45.6z M11.7,24.6c0.7,0.1,0.9,0.7,1.3,1C12.6,25.6,12,25,11.7,24.6z M17.3,28.9c0.1-0.3,0.3,0.1,0.4,0.1
			C17.6,29.2,17.4,29,17.3,28.9z M18,29.2c0.8-0.1,1.1,0.3,1.3,0.7C18.9,29.9,18.2,29.6,18,29.2z M26,33.3c0.3,0.1,0.5,0.4,0.8,0.4
			C26.6,33.9,26.1,33.6,26,33.3z M26.8,34.6v-0.1c0.1,0,0.2,0,0.2,0.1H26.8z M27.2,34.9c0.1-0.1,0.5,0,0.4,0.2
			C27.5,35.3,27.4,35,27.2,34.9z M27,34c0.1,0,0.6,0.3,0.7,0.5C27.5,34.3,27.2,34.2,27,34z M28.7,35.6c-0.4-0.1-0.6-0.4-0.7-0.7
			c0.2,0.1,0.4,0.4,0.8,0.3C28.7,35.4,28.6,35.4,28.7,35.6z M31,39.1c-0.8-0.7-1.2-2-2.1-2.6c-0.1-0.2,0.1-0.2,0.1-0.4
			c0.3,0.1,0.3,0.5,0.6,0.6c0.4-0.2-0.2-0.3-0.1-0.7c0.4,0.2,0.7,0.5,0.9,0.8c0,0.3-0.3,0-0.4,0c0,0.4,0.2,0.6,0.7,0.6
			c0.2,0.3,0.6,0.6,0.6,1.1C31,38.6,30.9,38.8,31,39.1z"/>
	</g>
</g>
</svg>
